%TF.GenerationSoftware,KiCad,Pcbnew,(7.0.0-rc2-19-gbcc1e28bab)*%
%TF.CreationDate,2023-01-26T23:12:17-08:00*%
%TF.ProjectId,Amplified-WSPR-Beacon-v3,416d706c-6966-4696-9564-2d575350522d,rev?*%
%TF.SameCoordinates,Original*%
%TF.FileFunction,Legend,Top*%
%TF.FilePolarity,Positive*%
%FSLAX46Y46*%
G04 Gerber Fmt 4.6, Leading zero omitted, Abs format (unit mm)*
G04 Created by KiCad (PCBNEW (7.0.0-rc2-19-gbcc1e28bab)) date 2023-01-26 23:12:17*
%MOMM*%
%LPD*%
G01*
G04 APERTURE LIST*
G04 Aperture macros list*
%AMRoundRect*
0 Rectangle with rounded corners*
0 $1 Rounding radius*
0 $2 $3 $4 $5 $6 $7 $8 $9 X,Y pos of 4 corners*
0 Add a 4 corners polygon primitive as box body*
4,1,4,$2,$3,$4,$5,$6,$7,$8,$9,$2,$3,0*
0 Add four circle primitives for the rounded corners*
1,1,$1+$1,$2,$3*
1,1,$1+$1,$4,$5*
1,1,$1+$1,$6,$7*
1,1,$1+$1,$8,$9*
0 Add four rect primitives between the rounded corners*
20,1,$1+$1,$2,$3,$4,$5,0*
20,1,$1+$1,$4,$5,$6,$7,0*
20,1,$1+$1,$6,$7,$8,$9,0*
20,1,$1+$1,$8,$9,$2,$3,0*%
%AMFreePoly0*
4,1,6,1.000000,0.000000,0.500000,-0.750000,-0.500000,-0.750000,-0.500000,0.750000,0.500000,0.750000,1.000000,0.000000,1.000000,0.000000,$1*%
%AMFreePoly1*
4,1,6,0.500000,-0.750000,-0.650000,-0.750000,-0.150000,0.000000,-0.650000,0.750000,0.500000,0.750000,0.500000,-0.750000,0.500000,-0.750000,$1*%
G04 Aperture macros list end*
%ADD10C,0.150000*%
%ADD11C,0.120000*%
%ADD12C,0.127000*%
%ADD13R,1.200000X1.200000*%
%ADD14C,1.200000*%
%ADD15R,1.270000X3.600000*%
%ADD16R,1.350000X4.200000*%
%ADD17FreePoly0,270.000000*%
%ADD18FreePoly1,270.000000*%
%ADD19R,1.800000X1.800000*%
%ADD20C,1.800000*%
%ADD21FreePoly0,0.000000*%
%ADD22FreePoly1,0.000000*%
%ADD23C,0.800000*%
%ADD24C,6.400000*%
%ADD25C,1.600000*%
%ADD26R,1.700000X1.700000*%
%ADD27R,1.778000X0.609600*%
%ADD28O,1.700000X1.700000*%
%ADD29O,1.800000X1.800000*%
%ADD30O,1.500000X1.500000*%
%ADD31R,1.700000X3.500000*%
%ADD32R,3.500000X1.700000*%
%ADD33R,3.000000X3.000000*%
%ADD34C,3.000000*%
%ADD35FreePoly0,90.000000*%
%ADD36FreePoly1,90.000000*%
%ADD37R,2.400000X1.600000*%
%ADD38O,2.400000X1.600000*%
%ADD39RoundRect,0.381000X-0.381000X0.762000X-0.381000X-0.762000X0.381000X-0.762000X0.381000X0.762000X0*%
%ADD40C,1.400000*%
%ADD41O,1.400000X1.400000*%
%ADD42FreePoly0,180.000000*%
%ADD43FreePoly1,180.000000*%
%ADD44C,3.200000*%
G04 APERTURE END LIST*
D10*
%TO.C,C8*%
X135493333Y-94532142D02*
X135445714Y-94579761D01*
X135445714Y-94579761D02*
X135302857Y-94627380D01*
X135302857Y-94627380D02*
X135207619Y-94627380D01*
X135207619Y-94627380D02*
X135064762Y-94579761D01*
X135064762Y-94579761D02*
X134969524Y-94484523D01*
X134969524Y-94484523D02*
X134921905Y-94389285D01*
X134921905Y-94389285D02*
X134874286Y-94198809D01*
X134874286Y-94198809D02*
X134874286Y-94055952D01*
X134874286Y-94055952D02*
X134921905Y-93865476D01*
X134921905Y-93865476D02*
X134969524Y-93770238D01*
X134969524Y-93770238D02*
X135064762Y-93675000D01*
X135064762Y-93675000D02*
X135207619Y-93627380D01*
X135207619Y-93627380D02*
X135302857Y-93627380D01*
X135302857Y-93627380D02*
X135445714Y-93675000D01*
X135445714Y-93675000D02*
X135493333Y-93722619D01*
X136064762Y-94055952D02*
X135969524Y-94008333D01*
X135969524Y-94008333D02*
X135921905Y-93960714D01*
X135921905Y-93960714D02*
X135874286Y-93865476D01*
X135874286Y-93865476D02*
X135874286Y-93817857D01*
X135874286Y-93817857D02*
X135921905Y-93722619D01*
X135921905Y-93722619D02*
X135969524Y-93675000D01*
X135969524Y-93675000D02*
X136064762Y-93627380D01*
X136064762Y-93627380D02*
X136255238Y-93627380D01*
X136255238Y-93627380D02*
X136350476Y-93675000D01*
X136350476Y-93675000D02*
X136398095Y-93722619D01*
X136398095Y-93722619D02*
X136445714Y-93817857D01*
X136445714Y-93817857D02*
X136445714Y-93865476D01*
X136445714Y-93865476D02*
X136398095Y-93960714D01*
X136398095Y-93960714D02*
X136350476Y-94008333D01*
X136350476Y-94008333D02*
X136255238Y-94055952D01*
X136255238Y-94055952D02*
X136064762Y-94055952D01*
X136064762Y-94055952D02*
X135969524Y-94103571D01*
X135969524Y-94103571D02*
X135921905Y-94151190D01*
X135921905Y-94151190D02*
X135874286Y-94246428D01*
X135874286Y-94246428D02*
X135874286Y-94436904D01*
X135874286Y-94436904D02*
X135921905Y-94532142D01*
X135921905Y-94532142D02*
X135969524Y-94579761D01*
X135969524Y-94579761D02*
X136064762Y-94627380D01*
X136064762Y-94627380D02*
X136255238Y-94627380D01*
X136255238Y-94627380D02*
X136350476Y-94579761D01*
X136350476Y-94579761D02*
X136398095Y-94532142D01*
X136398095Y-94532142D02*
X136445714Y-94436904D01*
X136445714Y-94436904D02*
X136445714Y-94246428D01*
X136445714Y-94246428D02*
X136398095Y-94151190D01*
X136398095Y-94151190D02*
X136350476Y-94103571D01*
X136350476Y-94103571D02*
X136255238Y-94055952D01*
%TO.C,J1*%
X163946666Y-129907380D02*
X163946666Y-130621666D01*
X163946666Y-130621666D02*
X163899047Y-130764523D01*
X163899047Y-130764523D02*
X163803809Y-130859761D01*
X163803809Y-130859761D02*
X163660952Y-130907380D01*
X163660952Y-130907380D02*
X163565714Y-130907380D01*
X164946666Y-130907380D02*
X164375238Y-130907380D01*
X164660952Y-130907380D02*
X164660952Y-129907380D01*
X164660952Y-129907380D02*
X164565714Y-130050238D01*
X164565714Y-130050238D02*
X164470476Y-130145476D01*
X164470476Y-130145476D02*
X164375238Y-130193095D01*
%TO.C,JP5*%
X117567380Y-99468333D02*
X118281666Y-99468333D01*
X118281666Y-99468333D02*
X118424523Y-99515952D01*
X118424523Y-99515952D02*
X118519761Y-99611190D01*
X118519761Y-99611190D02*
X118567380Y-99754047D01*
X118567380Y-99754047D02*
X118567380Y-99849285D01*
X118567380Y-98992142D02*
X117567380Y-98992142D01*
X117567380Y-98992142D02*
X117567380Y-98611190D01*
X117567380Y-98611190D02*
X117615000Y-98515952D01*
X117615000Y-98515952D02*
X117662619Y-98468333D01*
X117662619Y-98468333D02*
X117757857Y-98420714D01*
X117757857Y-98420714D02*
X117900714Y-98420714D01*
X117900714Y-98420714D02*
X117995952Y-98468333D01*
X117995952Y-98468333D02*
X118043571Y-98515952D01*
X118043571Y-98515952D02*
X118091190Y-98611190D01*
X118091190Y-98611190D02*
X118091190Y-98992142D01*
X117567380Y-97515952D02*
X117567380Y-97992142D01*
X117567380Y-97992142D02*
X118043571Y-98039761D01*
X118043571Y-98039761D02*
X117995952Y-97992142D01*
X117995952Y-97992142D02*
X117948333Y-97896904D01*
X117948333Y-97896904D02*
X117948333Y-97658809D01*
X117948333Y-97658809D02*
X117995952Y-97563571D01*
X117995952Y-97563571D02*
X118043571Y-97515952D01*
X118043571Y-97515952D02*
X118138809Y-97468333D01*
X118138809Y-97468333D02*
X118376904Y-97468333D01*
X118376904Y-97468333D02*
X118472142Y-97515952D01*
X118472142Y-97515952D02*
X118519761Y-97563571D01*
X118519761Y-97563571D02*
X118567380Y-97658809D01*
X118567380Y-97658809D02*
X118567380Y-97896904D01*
X118567380Y-97896904D02*
X118519761Y-97992142D01*
X118519761Y-97992142D02*
X118472142Y-98039761D01*
%TO.C,D1*%
X95627380Y-94388094D02*
X94627380Y-94388094D01*
X94627380Y-94388094D02*
X94627380Y-94149999D01*
X94627380Y-94149999D02*
X94675000Y-94007142D01*
X94675000Y-94007142D02*
X94770238Y-93911904D01*
X94770238Y-93911904D02*
X94865476Y-93864285D01*
X94865476Y-93864285D02*
X95055952Y-93816666D01*
X95055952Y-93816666D02*
X95198809Y-93816666D01*
X95198809Y-93816666D02*
X95389285Y-93864285D01*
X95389285Y-93864285D02*
X95484523Y-93911904D01*
X95484523Y-93911904D02*
X95579761Y-94007142D01*
X95579761Y-94007142D02*
X95627380Y-94149999D01*
X95627380Y-94149999D02*
X95627380Y-94388094D01*
X95627380Y-92864285D02*
X95627380Y-93435713D01*
X95627380Y-93149999D02*
X94627380Y-93149999D01*
X94627380Y-93149999D02*
X94770238Y-93245237D01*
X94770238Y-93245237D02*
X94865476Y-93340475D01*
X94865476Y-93340475D02*
X94913095Y-93435713D01*
%TO.C,JP2*%
X134706666Y-115657380D02*
X134706666Y-116371666D01*
X134706666Y-116371666D02*
X134659047Y-116514523D01*
X134659047Y-116514523D02*
X134563809Y-116609761D01*
X134563809Y-116609761D02*
X134420952Y-116657380D01*
X134420952Y-116657380D02*
X134325714Y-116657380D01*
X135182857Y-116657380D02*
X135182857Y-115657380D01*
X135182857Y-115657380D02*
X135563809Y-115657380D01*
X135563809Y-115657380D02*
X135659047Y-115705000D01*
X135659047Y-115705000D02*
X135706666Y-115752619D01*
X135706666Y-115752619D02*
X135754285Y-115847857D01*
X135754285Y-115847857D02*
X135754285Y-115990714D01*
X135754285Y-115990714D02*
X135706666Y-116085952D01*
X135706666Y-116085952D02*
X135659047Y-116133571D01*
X135659047Y-116133571D02*
X135563809Y-116181190D01*
X135563809Y-116181190D02*
X135182857Y-116181190D01*
X136135238Y-115752619D02*
X136182857Y-115705000D01*
X136182857Y-115705000D02*
X136278095Y-115657380D01*
X136278095Y-115657380D02*
X136516190Y-115657380D01*
X136516190Y-115657380D02*
X136611428Y-115705000D01*
X136611428Y-115705000D02*
X136659047Y-115752619D01*
X136659047Y-115752619D02*
X136706666Y-115847857D01*
X136706666Y-115847857D02*
X136706666Y-115943095D01*
X136706666Y-115943095D02*
X136659047Y-116085952D01*
X136659047Y-116085952D02*
X136087619Y-116657380D01*
X136087619Y-116657380D02*
X136706666Y-116657380D01*
%TO.C,U2*%
X106728095Y-93977380D02*
X106728095Y-94786904D01*
X106728095Y-94786904D02*
X106775714Y-94882142D01*
X106775714Y-94882142D02*
X106823333Y-94929761D01*
X106823333Y-94929761D02*
X106918571Y-94977380D01*
X106918571Y-94977380D02*
X107109047Y-94977380D01*
X107109047Y-94977380D02*
X107204285Y-94929761D01*
X107204285Y-94929761D02*
X107251904Y-94882142D01*
X107251904Y-94882142D02*
X107299523Y-94786904D01*
X107299523Y-94786904D02*
X107299523Y-93977380D01*
X107728095Y-94072619D02*
X107775714Y-94025000D01*
X107775714Y-94025000D02*
X107870952Y-93977380D01*
X107870952Y-93977380D02*
X108109047Y-93977380D01*
X108109047Y-93977380D02*
X108204285Y-94025000D01*
X108204285Y-94025000D02*
X108251904Y-94072619D01*
X108251904Y-94072619D02*
X108299523Y-94167857D01*
X108299523Y-94167857D02*
X108299523Y-94263095D01*
X108299523Y-94263095D02*
X108251904Y-94405952D01*
X108251904Y-94405952D02*
X107680476Y-94977380D01*
X107680476Y-94977380D02*
X108299523Y-94977380D01*
%TO.C,C3*%
X156063333Y-124502142D02*
X156015714Y-124549761D01*
X156015714Y-124549761D02*
X155872857Y-124597380D01*
X155872857Y-124597380D02*
X155777619Y-124597380D01*
X155777619Y-124597380D02*
X155634762Y-124549761D01*
X155634762Y-124549761D02*
X155539524Y-124454523D01*
X155539524Y-124454523D02*
X155491905Y-124359285D01*
X155491905Y-124359285D02*
X155444286Y-124168809D01*
X155444286Y-124168809D02*
X155444286Y-124025952D01*
X155444286Y-124025952D02*
X155491905Y-123835476D01*
X155491905Y-123835476D02*
X155539524Y-123740238D01*
X155539524Y-123740238D02*
X155634762Y-123645000D01*
X155634762Y-123645000D02*
X155777619Y-123597380D01*
X155777619Y-123597380D02*
X155872857Y-123597380D01*
X155872857Y-123597380D02*
X156015714Y-123645000D01*
X156015714Y-123645000D02*
X156063333Y-123692619D01*
X156396667Y-123597380D02*
X157015714Y-123597380D01*
X157015714Y-123597380D02*
X156682381Y-123978333D01*
X156682381Y-123978333D02*
X156825238Y-123978333D01*
X156825238Y-123978333D02*
X156920476Y-124025952D01*
X156920476Y-124025952D02*
X156968095Y-124073571D01*
X156968095Y-124073571D02*
X157015714Y-124168809D01*
X157015714Y-124168809D02*
X157015714Y-124406904D01*
X157015714Y-124406904D02*
X156968095Y-124502142D01*
X156968095Y-124502142D02*
X156920476Y-124549761D01*
X156920476Y-124549761D02*
X156825238Y-124597380D01*
X156825238Y-124597380D02*
X156539524Y-124597380D01*
X156539524Y-124597380D02*
X156444286Y-124549761D01*
X156444286Y-124549761D02*
X156396667Y-124502142D01*
%TO.C,TP1*%
X149267380Y-100171904D02*
X149267380Y-99600476D01*
X150267380Y-99886190D02*
X149267380Y-99886190D01*
X150267380Y-99267142D02*
X149267380Y-99267142D01*
X149267380Y-99267142D02*
X149267380Y-98886190D01*
X149267380Y-98886190D02*
X149315000Y-98790952D01*
X149315000Y-98790952D02*
X149362619Y-98743333D01*
X149362619Y-98743333D02*
X149457857Y-98695714D01*
X149457857Y-98695714D02*
X149600714Y-98695714D01*
X149600714Y-98695714D02*
X149695952Y-98743333D01*
X149695952Y-98743333D02*
X149743571Y-98790952D01*
X149743571Y-98790952D02*
X149791190Y-98886190D01*
X149791190Y-98886190D02*
X149791190Y-99267142D01*
X150267380Y-97743333D02*
X150267380Y-98314761D01*
X150267380Y-98029047D02*
X149267380Y-98029047D01*
X149267380Y-98029047D02*
X149410238Y-98124285D01*
X149410238Y-98124285D02*
X149505476Y-98219523D01*
X149505476Y-98219523D02*
X149553095Y-98314761D01*
%TO.C,TR1*%
X141748095Y-109977380D02*
X142319523Y-109977380D01*
X142033809Y-110977380D02*
X142033809Y-109977380D01*
X143224285Y-110977380D02*
X142890952Y-110501190D01*
X142652857Y-110977380D02*
X142652857Y-109977380D01*
X142652857Y-109977380D02*
X143033809Y-109977380D01*
X143033809Y-109977380D02*
X143129047Y-110025000D01*
X143129047Y-110025000D02*
X143176666Y-110072619D01*
X143176666Y-110072619D02*
X143224285Y-110167857D01*
X143224285Y-110167857D02*
X143224285Y-110310714D01*
X143224285Y-110310714D02*
X143176666Y-110405952D01*
X143176666Y-110405952D02*
X143129047Y-110453571D01*
X143129047Y-110453571D02*
X143033809Y-110501190D01*
X143033809Y-110501190D02*
X142652857Y-110501190D01*
X144176666Y-110977380D02*
X143605238Y-110977380D01*
X143890952Y-110977380D02*
X143890952Y-109977380D01*
X143890952Y-109977380D02*
X143795714Y-110120238D01*
X143795714Y-110120238D02*
X143700476Y-110215476D01*
X143700476Y-110215476D02*
X143605238Y-110263095D01*
%TO.C,TP2*%
X153508095Y-117547380D02*
X154079523Y-117547380D01*
X153793809Y-118547380D02*
X153793809Y-117547380D01*
X154412857Y-118547380D02*
X154412857Y-117547380D01*
X154412857Y-117547380D02*
X154793809Y-117547380D01*
X154793809Y-117547380D02*
X154889047Y-117595000D01*
X154889047Y-117595000D02*
X154936666Y-117642619D01*
X154936666Y-117642619D02*
X154984285Y-117737857D01*
X154984285Y-117737857D02*
X154984285Y-117880714D01*
X154984285Y-117880714D02*
X154936666Y-117975952D01*
X154936666Y-117975952D02*
X154889047Y-118023571D01*
X154889047Y-118023571D02*
X154793809Y-118071190D01*
X154793809Y-118071190D02*
X154412857Y-118071190D01*
X155365238Y-117642619D02*
X155412857Y-117595000D01*
X155412857Y-117595000D02*
X155508095Y-117547380D01*
X155508095Y-117547380D02*
X155746190Y-117547380D01*
X155746190Y-117547380D02*
X155841428Y-117595000D01*
X155841428Y-117595000D02*
X155889047Y-117642619D01*
X155889047Y-117642619D02*
X155936666Y-117737857D01*
X155936666Y-117737857D02*
X155936666Y-117833095D01*
X155936666Y-117833095D02*
X155889047Y-117975952D01*
X155889047Y-117975952D02*
X155317619Y-118547380D01*
X155317619Y-118547380D02*
X155936666Y-118547380D01*
%TO.C,C7*%
X132143333Y-94282142D02*
X132095714Y-94329761D01*
X132095714Y-94329761D02*
X131952857Y-94377380D01*
X131952857Y-94377380D02*
X131857619Y-94377380D01*
X131857619Y-94377380D02*
X131714762Y-94329761D01*
X131714762Y-94329761D02*
X131619524Y-94234523D01*
X131619524Y-94234523D02*
X131571905Y-94139285D01*
X131571905Y-94139285D02*
X131524286Y-93948809D01*
X131524286Y-93948809D02*
X131524286Y-93805952D01*
X131524286Y-93805952D02*
X131571905Y-93615476D01*
X131571905Y-93615476D02*
X131619524Y-93520238D01*
X131619524Y-93520238D02*
X131714762Y-93425000D01*
X131714762Y-93425000D02*
X131857619Y-93377380D01*
X131857619Y-93377380D02*
X131952857Y-93377380D01*
X131952857Y-93377380D02*
X132095714Y-93425000D01*
X132095714Y-93425000D02*
X132143333Y-93472619D01*
X132476667Y-93377380D02*
X133143333Y-93377380D01*
X133143333Y-93377380D02*
X132714762Y-94377380D01*
%TO.C,SW1*%
X131836667Y-63939761D02*
X131979524Y-63987380D01*
X131979524Y-63987380D02*
X132217619Y-63987380D01*
X132217619Y-63987380D02*
X132312857Y-63939761D01*
X132312857Y-63939761D02*
X132360476Y-63892142D01*
X132360476Y-63892142D02*
X132408095Y-63796904D01*
X132408095Y-63796904D02*
X132408095Y-63701666D01*
X132408095Y-63701666D02*
X132360476Y-63606428D01*
X132360476Y-63606428D02*
X132312857Y-63558809D01*
X132312857Y-63558809D02*
X132217619Y-63511190D01*
X132217619Y-63511190D02*
X132027143Y-63463571D01*
X132027143Y-63463571D02*
X131931905Y-63415952D01*
X131931905Y-63415952D02*
X131884286Y-63368333D01*
X131884286Y-63368333D02*
X131836667Y-63273095D01*
X131836667Y-63273095D02*
X131836667Y-63177857D01*
X131836667Y-63177857D02*
X131884286Y-63082619D01*
X131884286Y-63082619D02*
X131931905Y-63035000D01*
X131931905Y-63035000D02*
X132027143Y-62987380D01*
X132027143Y-62987380D02*
X132265238Y-62987380D01*
X132265238Y-62987380D02*
X132408095Y-63035000D01*
X132741429Y-62987380D02*
X132979524Y-63987380D01*
X132979524Y-63987380D02*
X133170000Y-63273095D01*
X133170000Y-63273095D02*
X133360476Y-63987380D01*
X133360476Y-63987380D02*
X133598572Y-62987380D01*
X134503333Y-63987380D02*
X133931905Y-63987380D01*
X134217619Y-63987380D02*
X134217619Y-62987380D01*
X134217619Y-62987380D02*
X134122381Y-63130238D01*
X134122381Y-63130238D02*
X134027143Y-63225476D01*
X134027143Y-63225476D02*
X133931905Y-63273095D01*
%TO.C,RTC1*%
X163974380Y-78111619D02*
X163498190Y-78444952D01*
X163974380Y-78683047D02*
X162974380Y-78683047D01*
X162974380Y-78683047D02*
X162974380Y-78302095D01*
X162974380Y-78302095D02*
X163022000Y-78206857D01*
X163022000Y-78206857D02*
X163069619Y-78159238D01*
X163069619Y-78159238D02*
X163164857Y-78111619D01*
X163164857Y-78111619D02*
X163307714Y-78111619D01*
X163307714Y-78111619D02*
X163402952Y-78159238D01*
X163402952Y-78159238D02*
X163450571Y-78206857D01*
X163450571Y-78206857D02*
X163498190Y-78302095D01*
X163498190Y-78302095D02*
X163498190Y-78683047D01*
X162974380Y-77825904D02*
X162974380Y-77254476D01*
X163974380Y-77540190D02*
X162974380Y-77540190D01*
X163879142Y-76349714D02*
X163926761Y-76397333D01*
X163926761Y-76397333D02*
X163974380Y-76540190D01*
X163974380Y-76540190D02*
X163974380Y-76635428D01*
X163974380Y-76635428D02*
X163926761Y-76778285D01*
X163926761Y-76778285D02*
X163831523Y-76873523D01*
X163831523Y-76873523D02*
X163736285Y-76921142D01*
X163736285Y-76921142D02*
X163545809Y-76968761D01*
X163545809Y-76968761D02*
X163402952Y-76968761D01*
X163402952Y-76968761D02*
X163212476Y-76921142D01*
X163212476Y-76921142D02*
X163117238Y-76873523D01*
X163117238Y-76873523D02*
X163022000Y-76778285D01*
X163022000Y-76778285D02*
X162974380Y-76635428D01*
X162974380Y-76635428D02*
X162974380Y-76540190D01*
X162974380Y-76540190D02*
X163022000Y-76397333D01*
X163022000Y-76397333D02*
X163069619Y-76349714D01*
X163974380Y-75397333D02*
X163974380Y-75968761D01*
X163974380Y-75683047D02*
X162974380Y-75683047D01*
X162974380Y-75683047D02*
X163117238Y-75778285D01*
X163117238Y-75778285D02*
X163212476Y-75873523D01*
X163212476Y-75873523D02*
X163260095Y-75968761D01*
%TO.C,U1*%
X114848380Y-79535904D02*
X115657904Y-79535904D01*
X115657904Y-79535904D02*
X115753142Y-79488285D01*
X115753142Y-79488285D02*
X115800761Y-79440666D01*
X115800761Y-79440666D02*
X115848380Y-79345428D01*
X115848380Y-79345428D02*
X115848380Y-79154952D01*
X115848380Y-79154952D02*
X115800761Y-79059714D01*
X115800761Y-79059714D02*
X115753142Y-79012095D01*
X115753142Y-79012095D02*
X115657904Y-78964476D01*
X115657904Y-78964476D02*
X114848380Y-78964476D01*
X115848380Y-77964476D02*
X115848380Y-78535904D01*
X115848380Y-78250190D02*
X114848380Y-78250190D01*
X114848380Y-78250190D02*
X114991238Y-78345428D01*
X114991238Y-78345428D02*
X115086476Y-78440666D01*
X115086476Y-78440666D02*
X115134095Y-78535904D01*
%TO.C,C4*%
X133413333Y-123092142D02*
X133365714Y-123139761D01*
X133365714Y-123139761D02*
X133222857Y-123187380D01*
X133222857Y-123187380D02*
X133127619Y-123187380D01*
X133127619Y-123187380D02*
X132984762Y-123139761D01*
X132984762Y-123139761D02*
X132889524Y-123044523D01*
X132889524Y-123044523D02*
X132841905Y-122949285D01*
X132841905Y-122949285D02*
X132794286Y-122758809D01*
X132794286Y-122758809D02*
X132794286Y-122615952D01*
X132794286Y-122615952D02*
X132841905Y-122425476D01*
X132841905Y-122425476D02*
X132889524Y-122330238D01*
X132889524Y-122330238D02*
X132984762Y-122235000D01*
X132984762Y-122235000D02*
X133127619Y-122187380D01*
X133127619Y-122187380D02*
X133222857Y-122187380D01*
X133222857Y-122187380D02*
X133365714Y-122235000D01*
X133365714Y-122235000D02*
X133413333Y-122282619D01*
X134270476Y-122520714D02*
X134270476Y-123187380D01*
X134032381Y-122139761D02*
X133794286Y-122854047D01*
X133794286Y-122854047D02*
X134413333Y-122854047D01*
%TO.C,ANTENNA1*%
X150211666Y-135387618D02*
X150211666Y-134911428D01*
X150497380Y-135482856D02*
X149497380Y-135149523D01*
X149497380Y-135149523D02*
X150497380Y-134816190D01*
X150497380Y-134482856D02*
X149497380Y-134482856D01*
X149497380Y-134482856D02*
X150497380Y-133911428D01*
X150497380Y-133911428D02*
X149497380Y-133911428D01*
X149497380Y-133578094D02*
X149497380Y-133006666D01*
X150497380Y-133292380D02*
X149497380Y-133292380D01*
X149973571Y-132673332D02*
X149973571Y-132339999D01*
X150497380Y-132197142D02*
X150497380Y-132673332D01*
X150497380Y-132673332D02*
X149497380Y-132673332D01*
X149497380Y-132673332D02*
X149497380Y-132197142D01*
X150497380Y-131768570D02*
X149497380Y-131768570D01*
X149497380Y-131768570D02*
X150497380Y-131197142D01*
X150497380Y-131197142D02*
X149497380Y-131197142D01*
X150497380Y-130720951D02*
X149497380Y-130720951D01*
X149497380Y-130720951D02*
X150497380Y-130149523D01*
X150497380Y-130149523D02*
X149497380Y-130149523D01*
X150211666Y-129720951D02*
X150211666Y-129244761D01*
X150497380Y-129816189D02*
X149497380Y-129482856D01*
X149497380Y-129482856D02*
X150497380Y-129149523D01*
X150497380Y-128292380D02*
X150497380Y-128863808D01*
X150497380Y-128578094D02*
X149497380Y-128578094D01*
X149497380Y-128578094D02*
X149640238Y-128673332D01*
X149640238Y-128673332D02*
X149735476Y-128768570D01*
X149735476Y-128768570D02*
X149783095Y-128863808D01*
%TO.C,JP3*%
X134557380Y-127828333D02*
X135271666Y-127828333D01*
X135271666Y-127828333D02*
X135414523Y-127875952D01*
X135414523Y-127875952D02*
X135509761Y-127971190D01*
X135509761Y-127971190D02*
X135557380Y-128114047D01*
X135557380Y-128114047D02*
X135557380Y-128209285D01*
X135557380Y-127352142D02*
X134557380Y-127352142D01*
X134557380Y-127352142D02*
X134557380Y-126971190D01*
X134557380Y-126971190D02*
X134605000Y-126875952D01*
X134605000Y-126875952D02*
X134652619Y-126828333D01*
X134652619Y-126828333D02*
X134747857Y-126780714D01*
X134747857Y-126780714D02*
X134890714Y-126780714D01*
X134890714Y-126780714D02*
X134985952Y-126828333D01*
X134985952Y-126828333D02*
X135033571Y-126875952D01*
X135033571Y-126875952D02*
X135081190Y-126971190D01*
X135081190Y-126971190D02*
X135081190Y-127352142D01*
X134557380Y-126447380D02*
X134557380Y-125828333D01*
X134557380Y-125828333D02*
X134938333Y-126161666D01*
X134938333Y-126161666D02*
X134938333Y-126018809D01*
X134938333Y-126018809D02*
X134985952Y-125923571D01*
X134985952Y-125923571D02*
X135033571Y-125875952D01*
X135033571Y-125875952D02*
X135128809Y-125828333D01*
X135128809Y-125828333D02*
X135366904Y-125828333D01*
X135366904Y-125828333D02*
X135462142Y-125875952D01*
X135462142Y-125875952D02*
X135509761Y-125923571D01*
X135509761Y-125923571D02*
X135557380Y-126018809D01*
X135557380Y-126018809D02*
X135557380Y-126304523D01*
X135557380Y-126304523D02*
X135509761Y-126399761D01*
X135509761Y-126399761D02*
X135462142Y-126447380D01*
%TO.C,U3*%
X123188095Y-122887380D02*
X123188095Y-123696904D01*
X123188095Y-123696904D02*
X123235714Y-123792142D01*
X123235714Y-123792142D02*
X123283333Y-123839761D01*
X123283333Y-123839761D02*
X123378571Y-123887380D01*
X123378571Y-123887380D02*
X123569047Y-123887380D01*
X123569047Y-123887380D02*
X123664285Y-123839761D01*
X123664285Y-123839761D02*
X123711904Y-123792142D01*
X123711904Y-123792142D02*
X123759523Y-123696904D01*
X123759523Y-123696904D02*
X123759523Y-122887380D01*
X124140476Y-122887380D02*
X124759523Y-122887380D01*
X124759523Y-122887380D02*
X124426190Y-123268333D01*
X124426190Y-123268333D02*
X124569047Y-123268333D01*
X124569047Y-123268333D02*
X124664285Y-123315952D01*
X124664285Y-123315952D02*
X124711904Y-123363571D01*
X124711904Y-123363571D02*
X124759523Y-123458809D01*
X124759523Y-123458809D02*
X124759523Y-123696904D01*
X124759523Y-123696904D02*
X124711904Y-123792142D01*
X124711904Y-123792142D02*
X124664285Y-123839761D01*
X124664285Y-123839761D02*
X124569047Y-123887380D01*
X124569047Y-123887380D02*
X124283333Y-123887380D01*
X124283333Y-123887380D02*
X124188095Y-123839761D01*
X124188095Y-123839761D02*
X124140476Y-123792142D01*
%TO.C,L2*%
X148137619Y-125693333D02*
X148137619Y-125217143D01*
X148137619Y-125217143D02*
X149137619Y-125217143D01*
X149042380Y-125979048D02*
X149090000Y-126026667D01*
X149090000Y-126026667D02*
X149137619Y-126121905D01*
X149137619Y-126121905D02*
X149137619Y-126360000D01*
X149137619Y-126360000D02*
X149090000Y-126455238D01*
X149090000Y-126455238D02*
X149042380Y-126502857D01*
X149042380Y-126502857D02*
X148947142Y-126550476D01*
X148947142Y-126550476D02*
X148851904Y-126550476D01*
X148851904Y-126550476D02*
X148709047Y-126502857D01*
X148709047Y-126502857D02*
X148137619Y-125931429D01*
X148137619Y-125931429D02*
X148137619Y-126550476D01*
%TO.C,JP4*%
X110807380Y-98378333D02*
X111521666Y-98378333D01*
X111521666Y-98378333D02*
X111664523Y-98425952D01*
X111664523Y-98425952D02*
X111759761Y-98521190D01*
X111759761Y-98521190D02*
X111807380Y-98664047D01*
X111807380Y-98664047D02*
X111807380Y-98759285D01*
X111807380Y-97902142D02*
X110807380Y-97902142D01*
X110807380Y-97902142D02*
X110807380Y-97521190D01*
X110807380Y-97521190D02*
X110855000Y-97425952D01*
X110855000Y-97425952D02*
X110902619Y-97378333D01*
X110902619Y-97378333D02*
X110997857Y-97330714D01*
X110997857Y-97330714D02*
X111140714Y-97330714D01*
X111140714Y-97330714D02*
X111235952Y-97378333D01*
X111235952Y-97378333D02*
X111283571Y-97425952D01*
X111283571Y-97425952D02*
X111331190Y-97521190D01*
X111331190Y-97521190D02*
X111331190Y-97902142D01*
X111140714Y-96473571D02*
X111807380Y-96473571D01*
X110759761Y-96711666D02*
X111474047Y-96949761D01*
X111474047Y-96949761D02*
X111474047Y-96330714D01*
%TO.C,C1*%
X133663333Y-105632142D02*
X133615714Y-105679761D01*
X133615714Y-105679761D02*
X133472857Y-105727380D01*
X133472857Y-105727380D02*
X133377619Y-105727380D01*
X133377619Y-105727380D02*
X133234762Y-105679761D01*
X133234762Y-105679761D02*
X133139524Y-105584523D01*
X133139524Y-105584523D02*
X133091905Y-105489285D01*
X133091905Y-105489285D02*
X133044286Y-105298809D01*
X133044286Y-105298809D02*
X133044286Y-105155952D01*
X133044286Y-105155952D02*
X133091905Y-104965476D01*
X133091905Y-104965476D02*
X133139524Y-104870238D01*
X133139524Y-104870238D02*
X133234762Y-104775000D01*
X133234762Y-104775000D02*
X133377619Y-104727380D01*
X133377619Y-104727380D02*
X133472857Y-104727380D01*
X133472857Y-104727380D02*
X133615714Y-104775000D01*
X133615714Y-104775000D02*
X133663333Y-104822619D01*
X134615714Y-105727380D02*
X134044286Y-105727380D01*
X134330000Y-105727380D02*
X134330000Y-104727380D01*
X134330000Y-104727380D02*
X134234762Y-104870238D01*
X134234762Y-104870238D02*
X134139524Y-104965476D01*
X134139524Y-104965476D02*
X134044286Y-105013095D01*
%TO.C,R1*%
X119127380Y-124118666D02*
X118651190Y-124451999D01*
X119127380Y-124690094D02*
X118127380Y-124690094D01*
X118127380Y-124690094D02*
X118127380Y-124309142D01*
X118127380Y-124309142D02*
X118175000Y-124213904D01*
X118175000Y-124213904D02*
X118222619Y-124166285D01*
X118222619Y-124166285D02*
X118317857Y-124118666D01*
X118317857Y-124118666D02*
X118460714Y-124118666D01*
X118460714Y-124118666D02*
X118555952Y-124166285D01*
X118555952Y-124166285D02*
X118603571Y-124213904D01*
X118603571Y-124213904D02*
X118651190Y-124309142D01*
X118651190Y-124309142D02*
X118651190Y-124690094D01*
X119127380Y-123166285D02*
X119127380Y-123737713D01*
X119127380Y-123451999D02*
X118127380Y-123451999D01*
X118127380Y-123451999D02*
X118270238Y-123547237D01*
X118270238Y-123547237D02*
X118365476Y-123642475D01*
X118365476Y-123642475D02*
X118413095Y-123737713D01*
%TO.C,C2*%
X139952142Y-114616666D02*
X139999761Y-114664285D01*
X139999761Y-114664285D02*
X140047380Y-114807142D01*
X140047380Y-114807142D02*
X140047380Y-114902380D01*
X140047380Y-114902380D02*
X139999761Y-115045237D01*
X139999761Y-115045237D02*
X139904523Y-115140475D01*
X139904523Y-115140475D02*
X139809285Y-115188094D01*
X139809285Y-115188094D02*
X139618809Y-115235713D01*
X139618809Y-115235713D02*
X139475952Y-115235713D01*
X139475952Y-115235713D02*
X139285476Y-115188094D01*
X139285476Y-115188094D02*
X139190238Y-115140475D01*
X139190238Y-115140475D02*
X139095000Y-115045237D01*
X139095000Y-115045237D02*
X139047380Y-114902380D01*
X139047380Y-114902380D02*
X139047380Y-114807142D01*
X139047380Y-114807142D02*
X139095000Y-114664285D01*
X139095000Y-114664285D02*
X139142619Y-114616666D01*
X139142619Y-114235713D02*
X139095000Y-114188094D01*
X139095000Y-114188094D02*
X139047380Y-114092856D01*
X139047380Y-114092856D02*
X139047380Y-113854761D01*
X139047380Y-113854761D02*
X139095000Y-113759523D01*
X139095000Y-113759523D02*
X139142619Y-113711904D01*
X139142619Y-113711904D02*
X139237857Y-113664285D01*
X139237857Y-113664285D02*
X139333095Y-113664285D01*
X139333095Y-113664285D02*
X139475952Y-113711904D01*
X139475952Y-113711904D02*
X140047380Y-114283332D01*
X140047380Y-114283332D02*
X140047380Y-113664285D01*
%TO.C,R2*%
X97853333Y-94797380D02*
X97520000Y-94321190D01*
X97281905Y-94797380D02*
X97281905Y-93797380D01*
X97281905Y-93797380D02*
X97662857Y-93797380D01*
X97662857Y-93797380D02*
X97758095Y-93845000D01*
X97758095Y-93845000D02*
X97805714Y-93892619D01*
X97805714Y-93892619D02*
X97853333Y-93987857D01*
X97853333Y-93987857D02*
X97853333Y-94130714D01*
X97853333Y-94130714D02*
X97805714Y-94225952D01*
X97805714Y-94225952D02*
X97758095Y-94273571D01*
X97758095Y-94273571D02*
X97662857Y-94321190D01*
X97662857Y-94321190D02*
X97281905Y-94321190D01*
X98234286Y-93892619D02*
X98281905Y-93845000D01*
X98281905Y-93845000D02*
X98377143Y-93797380D01*
X98377143Y-93797380D02*
X98615238Y-93797380D01*
X98615238Y-93797380D02*
X98710476Y-93845000D01*
X98710476Y-93845000D02*
X98758095Y-93892619D01*
X98758095Y-93892619D02*
X98805714Y-93987857D01*
X98805714Y-93987857D02*
X98805714Y-94083095D01*
X98805714Y-94083095D02*
X98758095Y-94225952D01*
X98758095Y-94225952D02*
X98186667Y-94797380D01*
X98186667Y-94797380D02*
X98805714Y-94797380D01*
%TO.C,JP1*%
X148636666Y-111857380D02*
X148636666Y-112571666D01*
X148636666Y-112571666D02*
X148589047Y-112714523D01*
X148589047Y-112714523D02*
X148493809Y-112809761D01*
X148493809Y-112809761D02*
X148350952Y-112857380D01*
X148350952Y-112857380D02*
X148255714Y-112857380D01*
X149112857Y-112857380D02*
X149112857Y-111857380D01*
X149112857Y-111857380D02*
X149493809Y-111857380D01*
X149493809Y-111857380D02*
X149589047Y-111905000D01*
X149589047Y-111905000D02*
X149636666Y-111952619D01*
X149636666Y-111952619D02*
X149684285Y-112047857D01*
X149684285Y-112047857D02*
X149684285Y-112190714D01*
X149684285Y-112190714D02*
X149636666Y-112285952D01*
X149636666Y-112285952D02*
X149589047Y-112333571D01*
X149589047Y-112333571D02*
X149493809Y-112381190D01*
X149493809Y-112381190D02*
X149112857Y-112381190D01*
X150636666Y-112857380D02*
X150065238Y-112857380D01*
X150350952Y-112857380D02*
X150350952Y-111857380D01*
X150350952Y-111857380D02*
X150255714Y-112000238D01*
X150255714Y-112000238D02*
X150160476Y-112095476D01*
X150160476Y-112095476D02*
X150065238Y-112143095D01*
D11*
%TO.C,C8*%
X135655000Y-99492401D02*
X135655000Y-99092401D01*
X135455000Y-99292401D02*
X135855000Y-99292401D01*
X134770000Y-97222600D02*
X138930000Y-97222600D01*
X134770000Y-97182600D02*
X138930000Y-97182600D01*
X134771000Y-97142600D02*
X138929000Y-97142600D01*
X134773000Y-97102600D02*
X138927000Y-97102600D01*
X134776000Y-97062600D02*
X138924000Y-97062600D01*
X134779000Y-97022600D02*
X136010000Y-97022600D01*
X137690000Y-97022600D02*
X138921000Y-97022600D01*
X134783000Y-96982600D02*
X136010000Y-96982600D01*
X137690000Y-96982600D02*
X138917000Y-96982600D01*
X134788000Y-96942600D02*
X136010000Y-96942600D01*
X137690000Y-96942600D02*
X138912000Y-96942600D01*
X134794000Y-96902600D02*
X136010000Y-96902600D01*
X137690000Y-96902600D02*
X138906000Y-96902600D01*
X134800000Y-96862600D02*
X136010000Y-96862600D01*
X137690000Y-96862600D02*
X138900000Y-96862600D01*
X134808000Y-96822600D02*
X136010000Y-96822600D01*
X137690000Y-96822600D02*
X138892000Y-96822600D01*
X134816000Y-96782600D02*
X136010000Y-96782600D01*
X137690000Y-96782600D02*
X138884000Y-96782600D01*
X134825000Y-96742600D02*
X136010000Y-96742600D01*
X137690000Y-96742600D02*
X138875000Y-96742600D01*
X134834000Y-96702600D02*
X136010000Y-96702600D01*
X137690000Y-96702600D02*
X138866000Y-96702600D01*
X134845000Y-96662600D02*
X136010000Y-96662600D01*
X137690000Y-96662600D02*
X138855000Y-96662600D01*
X134856000Y-96622600D02*
X136010000Y-96622600D01*
X137690000Y-96622600D02*
X138844000Y-96622600D01*
X134868000Y-96582600D02*
X136010000Y-96582600D01*
X137690000Y-96582600D02*
X138832000Y-96582600D01*
X134882000Y-96542600D02*
X136010000Y-96542600D01*
X137690000Y-96542600D02*
X138818000Y-96542600D01*
X134896000Y-96501600D02*
X136010000Y-96501600D01*
X137690000Y-96501600D02*
X138804000Y-96501600D01*
X134910000Y-96461600D02*
X136010000Y-96461600D01*
X137690000Y-96461600D02*
X138790000Y-96461600D01*
X134926000Y-96421600D02*
X136010000Y-96421600D01*
X137690000Y-96421600D02*
X138774000Y-96421600D01*
X134943000Y-96381600D02*
X136010000Y-96381600D01*
X137690000Y-96381600D02*
X138757000Y-96381600D01*
X134961000Y-96341600D02*
X136010000Y-96341600D01*
X137690000Y-96341600D02*
X138739000Y-96341600D01*
X134980000Y-96301600D02*
X136010000Y-96301600D01*
X137690000Y-96301600D02*
X138720000Y-96301600D01*
X134999000Y-96261600D02*
X136010000Y-96261600D01*
X137690000Y-96261600D02*
X138701000Y-96261600D01*
X135020000Y-96221600D02*
X136010000Y-96221600D01*
X137690000Y-96221600D02*
X138680000Y-96221600D01*
X135042000Y-96181600D02*
X136010000Y-96181600D01*
X137690000Y-96181600D02*
X138658000Y-96181600D01*
X135065000Y-96141600D02*
X136010000Y-96141600D01*
X137690000Y-96141600D02*
X138635000Y-96141600D01*
X135090000Y-96101600D02*
X136010000Y-96101600D01*
X137690000Y-96101600D02*
X138610000Y-96101600D01*
X135115000Y-96061600D02*
X136010000Y-96061600D01*
X137690000Y-96061600D02*
X138585000Y-96061600D01*
X135142000Y-96021600D02*
X136010000Y-96021600D01*
X137690000Y-96021600D02*
X138558000Y-96021600D01*
X135170000Y-95981600D02*
X136010000Y-95981600D01*
X137690000Y-95981600D02*
X138530000Y-95981600D01*
X135200000Y-95941600D02*
X136010000Y-95941600D01*
X137690000Y-95941600D02*
X138500000Y-95941600D01*
X135231000Y-95901600D02*
X136010000Y-95901600D01*
X137690000Y-95901600D02*
X138469000Y-95901600D01*
X135263000Y-95861600D02*
X136010000Y-95861600D01*
X137690000Y-95861600D02*
X138437000Y-95861600D01*
X135298000Y-95821600D02*
X136010000Y-95821600D01*
X137690000Y-95821600D02*
X138402000Y-95821600D01*
X135334000Y-95781600D02*
X136010000Y-95781600D01*
X137690000Y-95781600D02*
X138366000Y-95781600D01*
X135372000Y-95741600D02*
X136010000Y-95741600D01*
X137690000Y-95741600D02*
X138328000Y-95741600D01*
X135412000Y-95701600D02*
X136010000Y-95701600D01*
X137690000Y-95701600D02*
X138288000Y-95701600D01*
X135454000Y-95661600D02*
X136010000Y-95661600D01*
X137690000Y-95661600D02*
X138246000Y-95661600D01*
X135499000Y-95621600D02*
X136010000Y-95621600D01*
X137690000Y-95621600D02*
X138201000Y-95621600D01*
X135546000Y-95581600D02*
X136010000Y-95581600D01*
X137690000Y-95581600D02*
X138154000Y-95581600D01*
X135596000Y-95541600D02*
X136010000Y-95541600D01*
X137690000Y-95541600D02*
X138104000Y-95541600D01*
X135650000Y-95501600D02*
X136010000Y-95501600D01*
X137690000Y-95501600D02*
X138050000Y-95501600D01*
X135708000Y-95461600D02*
X136010000Y-95461600D01*
X137690000Y-95461600D02*
X137992000Y-95461600D01*
X135770000Y-95421600D02*
X136010000Y-95421600D01*
X137690000Y-95421600D02*
X137930000Y-95421600D01*
X135837000Y-95381600D02*
X137863000Y-95381600D01*
X135910000Y-95341600D02*
X137790000Y-95341600D01*
X135991000Y-95301600D02*
X137709000Y-95301600D01*
X136082000Y-95261600D02*
X137618000Y-95261600D01*
X136186000Y-95221600D02*
X137514000Y-95221600D01*
X136313000Y-95181600D02*
X137387000Y-95181600D01*
X136480000Y-95141600D02*
X137220000Y-95141600D01*
X138970000Y-97222600D02*
G75*
G03*
X138970000Y-97222600I-2120000J0D01*
G01*
%TO.C,J1*%
X162330000Y-132330000D02*
X163440000Y-132330000D01*
X162330000Y-136040000D02*
X163440000Y-136040000D01*
X164030000Y-131280000D02*
X164280000Y-131780000D01*
X164280000Y-131780000D02*
X164530000Y-131280000D01*
X164530000Y-131280000D02*
X164030000Y-131280000D01*
X165120000Y-132330000D02*
X166230000Y-132330000D01*
X165120000Y-136040000D02*
X166230000Y-136040000D01*
%TO.C,JP5*%
X117400000Y-97235000D02*
X117400000Y-100035000D01*
X115400000Y-97235000D02*
X117400000Y-97235000D01*
X117400000Y-100035000D02*
X115400000Y-100035000D01*
X115400000Y-100035000D02*
X115400000Y-97235000D01*
%TO.C,D1*%
X91004000Y-94645000D02*
X91160000Y-94645000D01*
X93320000Y-94645000D02*
X93476000Y-94645000D01*
X91161392Y-91412666D02*
G75*
G03*
X91004485Y-94644999I1078608J-1672334D01*
G01*
X91160164Y-92043871D02*
G75*
G03*
X91160001Y-94125960I1079836J-1041129D01*
G01*
X93319999Y-94125960D02*
G75*
G03*
X93319836Y-92043871I-1079999J1040960D01*
G01*
X93475515Y-94644999D02*
G75*
G03*
X93318608Y-91412666I-1235515J1559999D01*
G01*
%TO.C,JP2*%
X134140000Y-117090000D02*
X136940000Y-117090000D01*
X134140000Y-119090000D02*
X134140000Y-117090000D01*
X136940000Y-117090000D02*
X136940000Y-119090000D01*
X136940000Y-119090000D02*
X134140000Y-119090000D01*
%TO.C,U2*%
X93489000Y-99881150D02*
X95216200Y-99881150D01*
X93539800Y-110599950D02*
X95394000Y-110599950D01*
X93616000Y-121839450D02*
X95292400Y-121826750D01*
X114926600Y-95359950D02*
X93489000Y-95359950D01*
X93489000Y-95359950D02*
X93489000Y-125763750D01*
X93489000Y-125763750D02*
X114926600Y-125763750D01*
X114926600Y-125763750D02*
X114926600Y-95359950D01*
%TO.C,C3*%
X153290000Y-125449000D02*
X153290000Y-124191000D01*
X155130000Y-125449000D02*
X155130000Y-124191000D01*
%TO.C,TP1*%
X146030000Y-97390000D02*
X147360000Y-97390000D01*
X146030000Y-98720000D02*
X146030000Y-97390000D01*
X146030000Y-99990000D02*
X146030000Y-100050000D01*
X146030000Y-99990000D02*
X148690000Y-99990000D01*
X146030000Y-100050000D02*
X148690000Y-100050000D01*
X148690000Y-99990000D02*
X148690000Y-100050000D01*
D12*
%TO.C,TR1*%
X141831000Y-109650000D02*
X148689000Y-109650000D01*
X148689000Y-109650000D02*
X148689000Y-102030000D01*
X141831000Y-102030000D02*
X141831000Y-109650000D01*
X148689000Y-102030000D02*
X141831000Y-102030000D01*
X148435000Y-108888000D02*
G75*
G03*
X148435000Y-108888000I-508000J0D01*
G01*
D11*
%TO.C,TP2*%
X153440000Y-119180000D02*
X154770000Y-119180000D01*
X153440000Y-120510000D02*
X153440000Y-119180000D01*
X153440000Y-121780000D02*
X153440000Y-121840000D01*
X153440000Y-121780000D02*
X156100000Y-121780000D01*
X153440000Y-121840000D02*
X156100000Y-121840000D01*
X156100000Y-121780000D02*
X156100000Y-121840000D01*
%TO.C,C7*%
X133260000Y-96341000D02*
X133260000Y-97599000D01*
X131420000Y-96341000D02*
X131420000Y-97599000D01*
%TO.C,SW1*%
X133310000Y-62350000D02*
X135910000Y-62350000D01*
X133310000Y-62350000D02*
X133310000Y-59690000D01*
X135910000Y-62350000D02*
X135910000Y-59690000D01*
X130710000Y-61020000D02*
X130710000Y-59690000D01*
X130710000Y-59690000D02*
X132040000Y-59690000D01*
X133310000Y-59690000D02*
X135910000Y-59690000D01*
%TO.C,RTC1*%
X165325000Y-83090000D02*
X180685000Y-83090000D01*
X165325000Y-83090000D02*
X165325000Y-74460000D01*
X165445000Y-83090000D02*
X165445000Y-74460000D01*
X165563095Y-83090000D02*
X165563095Y-74460000D01*
X165681190Y-83090000D02*
X165681190Y-74460000D01*
X165799285Y-83090000D02*
X165799285Y-74460000D01*
X165917380Y-83090000D02*
X165917380Y-74460000D01*
X166035475Y-83090000D02*
X166035475Y-74460000D01*
X166153570Y-83090000D02*
X166153570Y-74460000D01*
X166271665Y-83090000D02*
X166271665Y-74460000D01*
X166389760Y-83090000D02*
X166389760Y-74460000D01*
X166507855Y-83090000D02*
X166507855Y-74460000D01*
X166625950Y-83090000D02*
X166625950Y-74460000D01*
X166744045Y-83090000D02*
X166744045Y-74460000D01*
X166862140Y-83090000D02*
X166862140Y-74460000D01*
X166980235Y-83090000D02*
X166980235Y-74460000D01*
X167098330Y-83090000D02*
X167098330Y-74460000D01*
X167216425Y-83090000D02*
X167216425Y-74460000D01*
X167334520Y-83090000D02*
X167334520Y-74460000D01*
X167452615Y-83090000D02*
X167452615Y-74460000D01*
X167570710Y-83090000D02*
X167570710Y-74460000D01*
X167688805Y-83090000D02*
X167688805Y-74460000D01*
X167806900Y-83090000D02*
X167806900Y-74460000D01*
X167925000Y-83090000D02*
X167925000Y-74460000D01*
X170465000Y-83090000D02*
X170465000Y-74460000D01*
X173005000Y-83090000D02*
X173005000Y-74460000D01*
X175545000Y-83090000D02*
X175545000Y-74460000D01*
X178085000Y-83090000D02*
X178085000Y-74460000D01*
X180685000Y-83090000D02*
X180685000Y-74460000D01*
X165325000Y-74460000D02*
X180685000Y-74460000D01*
X166295000Y-74460000D02*
X166295000Y-74110000D01*
X167015000Y-74460000D02*
X167015000Y-74110000D01*
X168835000Y-74460000D02*
X168835000Y-74050000D01*
X169555000Y-74460000D02*
X169555000Y-74050000D01*
X171375000Y-74460000D02*
X171375000Y-74050000D01*
X172095000Y-74460000D02*
X172095000Y-74050000D01*
X173915000Y-74460000D02*
X173915000Y-74050000D01*
X174635000Y-74460000D02*
X174635000Y-74050000D01*
X176455000Y-74460000D02*
X176455000Y-74050000D01*
X177175000Y-74460000D02*
X177175000Y-74050000D01*
X178995000Y-74460000D02*
X178995000Y-74050000D01*
X179715000Y-74460000D02*
X179715000Y-74050000D01*
X165325000Y-73000000D02*
X165325000Y-71890000D01*
X165325000Y-71890000D02*
X166655000Y-71890000D01*
%TO.C,U1*%
X89981000Y-89274000D02*
X90281000Y-89274000D01*
X89981000Y-89274000D02*
X89981000Y-68274000D01*
X92381000Y-89274000D02*
X92781000Y-89274000D01*
X92648000Y-89274000D02*
X92648000Y-86267000D01*
X94981000Y-89274000D02*
X95381000Y-89274000D01*
X97481000Y-89274000D02*
X97881000Y-89274000D01*
X100081000Y-89274000D02*
X100481000Y-89274000D01*
X102581000Y-89274000D02*
X102981000Y-89274000D01*
X105081000Y-89274000D02*
X105481000Y-89274000D01*
X107681000Y-89274000D02*
X108081000Y-89274000D01*
X110181000Y-89274000D02*
X110581000Y-89274000D01*
X112781000Y-89274000D02*
X113181000Y-89274000D01*
X115281000Y-89274000D02*
X115681000Y-89274000D01*
X117781000Y-89274000D02*
X118181000Y-89274000D01*
X120381000Y-89274000D02*
X120781000Y-89274000D01*
X122881000Y-89274000D02*
X123281000Y-89274000D01*
X125481000Y-89274000D02*
X125881000Y-89274000D01*
X127981000Y-89274000D02*
X128381000Y-89274000D01*
X130581000Y-89274000D02*
X130981000Y-89274000D01*
X133081000Y-89274000D02*
X133481000Y-89274000D01*
X135581000Y-89274000D02*
X135981000Y-89274000D01*
X138181000Y-89274000D02*
X138581000Y-89274000D01*
X92648000Y-86267000D02*
X89981000Y-86267000D01*
X140981000Y-82474000D02*
X140981000Y-89274000D01*
X140981000Y-80274000D02*
X140981000Y-79874000D01*
X140981000Y-77674000D02*
X140981000Y-77274000D01*
X89981000Y-68274000D02*
X90281000Y-68274000D01*
X92381000Y-68274000D02*
X92781000Y-68274000D01*
X94981000Y-68274000D02*
X95381000Y-68274000D01*
X97481000Y-68274000D02*
X97881000Y-68274000D01*
X100081000Y-68274000D02*
X100481000Y-68274000D01*
X102581000Y-68274000D02*
X102981000Y-68274000D01*
X105081000Y-68274000D02*
X105481000Y-68274000D01*
X107681000Y-68274000D02*
X108081000Y-68274000D01*
X110181000Y-68274000D02*
X110581000Y-68274000D01*
X112781000Y-68274000D02*
X113181000Y-68274000D01*
X115281000Y-68274000D02*
X115681000Y-68274000D01*
X117781000Y-68274000D02*
X118181000Y-68274000D01*
X120381000Y-68274000D02*
X120781000Y-68274000D01*
X122881000Y-68274000D02*
X123281000Y-68274000D01*
X125481000Y-68274000D02*
X125881000Y-68274000D01*
X127981000Y-68274000D02*
X128381000Y-68274000D01*
X130581000Y-68274000D02*
X130981000Y-68274000D01*
X133081000Y-68274000D02*
X133481000Y-68274000D01*
X135581000Y-68274000D02*
X135981000Y-68274000D01*
X138181000Y-68274000D02*
X138581000Y-68274000D01*
X140981000Y-68274000D02*
X140981000Y-75074000D01*
%TO.C,C4*%
X134249000Y-122000000D02*
X132991000Y-122000000D01*
X134249000Y-120160000D02*
X132991000Y-120160000D01*
%TO.C,ANTENNA1*%
X149080000Y-135460000D02*
X149080000Y-127840000D01*
X149080000Y-127840000D02*
X138920000Y-127840000D01*
X138920000Y-135460000D02*
X149080000Y-135460000D01*
X138920000Y-129110000D02*
X149080000Y-129110000D01*
X138920000Y-127840000D02*
X138920000Y-135460000D01*
%TO.C,JP3*%
X135990000Y-128395000D02*
X135990000Y-125595000D01*
X137990000Y-128395000D02*
X135990000Y-128395000D01*
X135990000Y-125595000D02*
X137990000Y-125595000D01*
X137990000Y-125595000D02*
X137990000Y-128395000D01*
%TO.C,U3*%
X121558000Y-96902000D02*
X121558000Y-122422000D01*
X121558000Y-122422000D02*
X126058000Y-122422000D01*
X122808000Y-96902000D02*
X121558000Y-96902000D01*
X126058000Y-96902000D02*
X124808000Y-96902000D01*
X126058000Y-122422000D02*
X126058000Y-96902000D01*
X122808000Y-96902000D02*
G75*
G03*
X124808000Y-96902000I1000000J0D01*
G01*
%TO.C,L2*%
X148825000Y-119790000D02*
X148348500Y-123040000D01*
X148348500Y-119790000D02*
X147872000Y-123040000D01*
X147872000Y-119790000D02*
X147395500Y-123040000D01*
X147395500Y-119790000D02*
X146919000Y-123040000D01*
X146919000Y-119790000D02*
X146442500Y-123040000D01*
X146442500Y-119790000D02*
X145966000Y-123040000D01*
X145966000Y-119790000D02*
X145489500Y-123040000D01*
X145489500Y-119790000D02*
X145013000Y-123040000D01*
X145013000Y-119790000D02*
X144536500Y-123040000D01*
X144536500Y-119790000D02*
X144060000Y-123040000D01*
X144060000Y-119790000D02*
X143583500Y-123040000D01*
X143583500Y-119790000D02*
X143107000Y-123040000D01*
X143107000Y-119790000D02*
X142630500Y-123040000D01*
X142630500Y-119790000D02*
X142154000Y-123040000D01*
X142154000Y-119790000D02*
X141677500Y-123040000D01*
X141677500Y-119790000D02*
X141201000Y-123040000D01*
X141201000Y-119790000D02*
X140724500Y-123040000D01*
X140724500Y-119790000D02*
X140248000Y-123040000D01*
X140248000Y-119790000D02*
X139771500Y-123040000D01*
X139771500Y-119790000D02*
X139295000Y-123040000D01*
X148825000Y-119790000D02*
X139295000Y-119790000D01*
X139295000Y-119790000D02*
X139295000Y-123040000D01*
X139295000Y-123040000D02*
X148825000Y-123040000D01*
X148825000Y-123040000D02*
X148825000Y-119790000D01*
%TO.C,JP4*%
X112240000Y-98945000D02*
X112240000Y-96145000D01*
X114240000Y-98945000D02*
X112240000Y-98945000D01*
X112240000Y-96145000D02*
X114240000Y-96145000D01*
X114240000Y-96145000D02*
X114240000Y-98945000D01*
%TO.C,C1*%
X134459000Y-104230000D02*
X133201000Y-104230000D01*
X134459000Y-102390000D02*
X133201000Y-102390000D01*
%TO.C,R1*%
X117539999Y-122194133D02*
G75*
G03*
X116090642Y-122097095I-699999J417133D01*
G01*
%TO.C,C2*%
X143239000Y-115200000D02*
X141981000Y-115200000D01*
X143239000Y-113360000D02*
X141981000Y-113360000D01*
%TO.C,R2*%
X98552867Y-93209999D02*
G75*
G03*
X98649905Y-91760642I417133J699999D01*
G01*
%TO.C,JP1*%
X150905000Y-115280000D02*
X148105000Y-115280000D01*
X150905000Y-113280000D02*
X150905000Y-115280000D01*
X148105000Y-115280000D02*
X148105000Y-113280000D01*
X148105000Y-113280000D02*
X150905000Y-113280000D01*
%TD*%
%LPC*%
D13*
%TO.C,C8*%
X136849999Y-98222599D03*
D14*
X136850000Y-96222600D03*
%TD*%
D15*
%TO.C,J1*%
X164279999Y-134239999D03*
D16*
X161454999Y-134039999D03*
X167104999Y-134039999D03*
%TD*%
D17*
%TO.C,JP5*%
X116400000Y-97910000D03*
D18*
X116400000Y-99360000D03*
%TD*%
D19*
%TO.C,D1*%
X92239999Y-94354999D03*
D20*
X92240000Y-91815000D03*
%TD*%
D21*
%TO.C,JP2*%
X134815000Y-118090000D03*
D22*
X136265000Y-118090000D03*
%TD*%
D20*
%TO.C,U2*%
X113301000Y-103386350D03*
X113301000Y-105926350D03*
X113301000Y-108466350D03*
X113301000Y-111006350D03*
X113301000Y-113546350D03*
X113301000Y-116086350D03*
X113301000Y-118626350D03*
%TD*%
D23*
%TO.C,H4*%
X183620000Y-133190000D03*
X184322944Y-131492944D03*
X184322944Y-134887056D03*
X186020000Y-130790000D03*
D24*
X186020000Y-133190000D03*
D23*
X186020000Y-135590000D03*
X187717056Y-131492944D03*
X187717056Y-134887056D03*
X188420000Y-133190000D03*
%TD*%
D25*
%TO.C,C3*%
X154210000Y-126070000D03*
X154210000Y-123570000D03*
%TD*%
D26*
%TO.C,TP1*%
X147359999Y-98719999D03*
%TD*%
D27*
%TO.C,TR1*%
X138020999Y-108379999D03*
X138020999Y-105839999D03*
X138020999Y-103299999D03*
X152498999Y-103299999D03*
X152498999Y-105839999D03*
X152498999Y-108379999D03*
%TD*%
D26*
%TO.C,TP2*%
X154769999Y-120509999D03*
%TD*%
D25*
%TO.C,C7*%
X132340000Y-95720000D03*
X132340000Y-98220000D03*
%TD*%
D26*
%TO.C,SW1*%
X132039999Y-61019999D03*
D28*
X134579999Y-61019999D03*
%TD*%
D23*
%TO.C,H2*%
X183680000Y-60010000D03*
X184382944Y-58312944D03*
X184382944Y-61707056D03*
X186080000Y-57610000D03*
D24*
X186080000Y-60010000D03*
D23*
X186080000Y-62410000D03*
X187777056Y-58312944D03*
X187777056Y-61707056D03*
X188480000Y-60010000D03*
%TD*%
D26*
%TO.C,RTC1*%
X166654999Y-72999999D03*
D28*
X169194999Y-72999999D03*
X171734999Y-72999999D03*
X174274999Y-72999999D03*
X176814999Y-72999999D03*
X179354999Y-72999999D03*
%TD*%
D23*
%TO.C,H1*%
X90710000Y-60040000D03*
X91412944Y-58342944D03*
X91412944Y-61737056D03*
X93110000Y-57640000D03*
D24*
X93110000Y-60040000D03*
D23*
X93110000Y-62440000D03*
X94807056Y-58342944D03*
X94807056Y-61737056D03*
X95510000Y-60040000D03*
%TD*%
D29*
%TO.C,U1*%
X91480999Y-81498999D03*
D30*
X94510999Y-81198999D03*
X94510999Y-76348999D03*
D29*
X91480999Y-76048999D03*
D28*
X91350999Y-87663999D03*
D31*
X91350999Y-88563999D03*
D28*
X93890999Y-87663999D03*
D31*
X93890999Y-88563999D03*
D26*
X96430999Y-87663999D03*
D31*
X96430999Y-88563999D03*
D28*
X98970999Y-87663999D03*
D31*
X98970999Y-88563999D03*
D28*
X101510999Y-87663999D03*
D31*
X101510999Y-88563999D03*
D28*
X104050999Y-87663999D03*
D31*
X104050999Y-88563999D03*
D28*
X106590999Y-87663999D03*
D31*
X106590999Y-88563999D03*
D26*
X109130999Y-87663999D03*
D31*
X109130999Y-88563999D03*
D28*
X111670999Y-87663999D03*
D31*
X111670999Y-88563999D03*
D28*
X114210999Y-87663999D03*
D31*
X114210999Y-88563999D03*
D28*
X116750999Y-87663999D03*
D31*
X116750999Y-88563999D03*
D28*
X119290999Y-87663999D03*
D31*
X119290999Y-88563999D03*
D26*
X121830999Y-87663999D03*
D31*
X121830999Y-88563999D03*
D28*
X124370999Y-87663999D03*
D31*
X124370999Y-88563999D03*
D28*
X126910999Y-87663999D03*
D31*
X126910999Y-88563999D03*
D28*
X129450999Y-87663999D03*
D31*
X129450999Y-88563999D03*
D28*
X131990999Y-87663999D03*
D31*
X131990999Y-88563999D03*
D26*
X134530999Y-87663999D03*
D31*
X134530999Y-88563999D03*
D28*
X137070999Y-87663999D03*
D31*
X137070999Y-88563999D03*
D28*
X139610999Y-87663999D03*
D31*
X139610999Y-88563999D03*
D28*
X139610999Y-69883999D03*
D31*
X139610999Y-68983999D03*
D28*
X137070999Y-69883999D03*
D31*
X137070999Y-68983999D03*
D26*
X134530999Y-69883999D03*
D31*
X134530999Y-68983999D03*
D28*
X131990999Y-69883999D03*
D31*
X131990999Y-68983999D03*
D28*
X129450999Y-69883999D03*
D31*
X129450999Y-68983999D03*
D28*
X126910999Y-69883999D03*
D31*
X126910999Y-68983999D03*
D28*
X124370999Y-69883999D03*
D31*
X124370999Y-68983999D03*
D26*
X121830999Y-69883999D03*
D31*
X121830999Y-68983999D03*
D28*
X119290999Y-69883999D03*
D31*
X119290999Y-68983999D03*
D28*
X116750999Y-69883999D03*
D31*
X116750999Y-68983999D03*
D28*
X114210999Y-69883999D03*
D31*
X114210999Y-68983999D03*
D28*
X111670999Y-69883999D03*
D31*
X111670999Y-68983999D03*
D26*
X109130999Y-69883999D03*
D31*
X109130999Y-68983999D03*
D28*
X106590999Y-69883999D03*
D31*
X106590999Y-68983999D03*
D28*
X104050999Y-69883999D03*
D31*
X104050999Y-68983999D03*
D28*
X101510999Y-69883999D03*
D31*
X101510999Y-68983999D03*
D28*
X98970999Y-69883999D03*
D31*
X98970999Y-68983999D03*
D26*
X96430999Y-69883999D03*
D31*
X96430999Y-68983999D03*
D28*
X93890999Y-69883999D03*
D31*
X93890999Y-68983999D03*
D28*
X91350999Y-69883999D03*
D31*
X91350999Y-68983999D03*
D28*
X139380999Y-81313999D03*
D32*
X140280999Y-81313999D03*
D26*
X139380999Y-78773999D03*
D32*
X140280999Y-78773999D03*
D28*
X139380999Y-76233999D03*
D32*
X140280999Y-76233999D03*
%TD*%
D25*
%TO.C,C4*%
X134870000Y-121080000D03*
X132370000Y-121080000D03*
%TD*%
D33*
%TO.C,ANTENNA1*%
X146539999Y-131649999D03*
D34*
X141460000Y-131650000D03*
%TD*%
D35*
%TO.C,JP3*%
X136990000Y-127720000D03*
D36*
X136990000Y-126270000D03*
%TD*%
D37*
%TO.C,U3*%
X119997999Y-98231999D03*
D38*
X119997999Y-100771999D03*
X119997999Y-103311999D03*
X119997999Y-105851999D03*
X119997999Y-108391999D03*
X119997999Y-110931999D03*
X119997999Y-113471999D03*
X119997999Y-116011999D03*
X119997999Y-118551999D03*
X119997999Y-121091999D03*
X127617999Y-121091999D03*
X127617999Y-118551999D03*
X127617999Y-116011999D03*
X127617999Y-113471999D03*
X127617999Y-110931999D03*
X127617999Y-108391999D03*
X127617999Y-105851999D03*
X127617999Y-103311999D03*
X127617999Y-100771999D03*
X127617999Y-98231999D03*
%TD*%
D23*
%TO.C,H3*%
X93000000Y-135500000D03*
X91302944Y-134797056D03*
X94697056Y-134797056D03*
X90600000Y-133100000D03*
D24*
X93000000Y-133100000D03*
D23*
X95400000Y-133100000D03*
X91302944Y-131402944D03*
X94697056Y-131402944D03*
X93000000Y-130700000D03*
%TD*%
D39*
%TO.C,L2*%
X141520000Y-118240000D03*
X146600000Y-124590000D03*
%TD*%
D35*
%TO.C,JP4*%
X113240000Y-98270000D03*
D36*
X113240000Y-96820000D03*
%TD*%
D25*
%TO.C,C1*%
X135080000Y-103310000D03*
X132580000Y-103310000D03*
%TD*%
D40*
%TO.C,R1*%
X116840000Y-121777000D03*
D41*
X116839999Y-123676999D03*
%TD*%
D25*
%TO.C,C2*%
X143860000Y-114280000D03*
X141360000Y-114280000D03*
%TD*%
D40*
%TO.C,R2*%
X98970000Y-92510000D03*
D41*
X97069999Y-92509999D03*
%TD*%
D42*
%TO.C,JP1*%
X150230000Y-114280000D03*
D43*
X148780000Y-114280000D03*
%TD*%
D23*
X131318000Y-128270000D03*
X113538000Y-126746000D03*
X135342000Y-58328000D03*
X186206000Y-87160000D03*
X100798000Y-59852000D03*
X162774000Y-58328000D03*
X153200000Y-83770000D03*
X172008000Y-135162000D03*
X90728000Y-126780000D03*
X147026000Y-58328000D03*
X136176000Y-99950000D03*
X157410000Y-104690000D03*
X105460000Y-126780000D03*
X173466000Y-59804000D03*
X145786000Y-73990000D03*
X91998000Y-123732000D03*
X159980000Y-58328000D03*
X187730000Y-83858000D03*
X152022000Y-98532000D03*
X178866000Y-132622000D03*
X109524000Y-133638000D03*
X184620000Y-70446000D03*
X186266000Y-120082000D03*
X157176000Y-121632000D03*
X151616000Y-74040000D03*
X91998000Y-125256000D03*
X116702000Y-93400000D03*
X93522000Y-128304000D03*
X170688000Y-133858000D03*
X154710000Y-92332000D03*
X147370000Y-83720000D03*
X112064000Y-130336000D03*
D44*
X132690000Y-134400000D03*
D23*
X157600000Y-75334000D03*
X127875000Y-58326000D03*
X170684000Y-61602000D03*
X91948000Y-119380000D03*
X157410000Y-106214000D03*
X117602000Y-133604000D03*
X120396000Y-130302000D03*
X138910000Y-61650000D03*
X121716000Y-135162000D03*
X112990000Y-59852000D03*
X155936000Y-113106000D03*
X178866000Y-135162000D03*
X117830000Y-96360000D03*
X172208000Y-61602000D03*
X176062000Y-131324000D03*
X112064000Y-126780000D03*
X174802000Y-132622000D03*
X154710000Y-80394000D03*
X153150000Y-92372000D03*
X102666000Y-130336000D03*
X148334000Y-59840000D03*
X113588000Y-131860000D03*
X125730000Y-128270000D03*
X187730000Y-73698000D03*
X97332000Y-133638000D03*
X116332000Y-130302000D03*
X100798000Y-58328000D03*
X166570000Y-58292000D03*
X133170000Y-110420000D03*
X180998000Y-59782000D03*
X152048000Y-100006000D03*
D44*
X182630000Y-88370000D03*
D23*
X112064000Y-131860000D03*
X187790000Y-112208000D03*
X169164000Y-132588000D03*
X156424000Y-58328000D03*
X156594000Y-97008000D03*
X157176000Y-118330000D03*
X102334000Y-61650000D03*
X134440000Y-108896000D03*
X150752000Y-97008000D03*
X99872000Y-126780000D03*
X116382000Y-135162000D03*
X106730000Y-133638000D03*
X120356000Y-58328000D03*
X187860000Y-126362000D03*
X157600000Y-92352000D03*
X174792000Y-131324000D03*
X156234000Y-80394000D03*
X90728000Y-120938000D03*
X133858000Y-124968000D03*
X137894000Y-61650000D03*
X183096000Y-73748000D03*
X129794000Y-128270000D03*
X94792000Y-128304000D03*
X151626000Y-89070000D03*
X157600000Y-80414000D03*
X106386000Y-59852000D03*
X98602000Y-126780000D03*
D44*
X154550000Y-130460000D03*
D23*
X178216000Y-61580000D03*
X150260000Y-78890000D03*
X187730000Y-78524000D03*
X90678000Y-112014000D03*
X103936000Y-130336000D03*
X147320000Y-82162000D03*
X153680000Y-61638000D03*
X121880000Y-59852000D03*
X178204000Y-59782000D03*
X147320000Y-85464000D03*
X186206000Y-91732000D03*
X151626000Y-80434000D03*
X94792000Y-126780000D03*
X107656000Y-58328000D03*
X168094000Y-58292000D03*
X186206000Y-88938000D03*
X142962000Y-59852000D03*
X114514000Y-58328000D03*
X124560000Y-101560000D03*
X154710000Y-78870000D03*
X90728000Y-97062000D03*
X187790000Y-110430000D03*
X148726000Y-74020000D03*
X145540000Y-59840000D03*
X90728000Y-125256000D03*
X90728000Y-98332000D03*
D44*
X166580000Y-88370000D03*
D23*
X108938000Y-61650000D03*
X158660000Y-59818000D03*
X90678000Y-102870000D03*
X124510000Y-135162000D03*
X161250000Y-58328000D03*
X100810000Y-61650000D03*
X133858000Y-126746000D03*
X187700000Y-65000000D03*
X127887000Y-61648000D03*
X110450000Y-59852000D03*
X156620000Y-101530000D03*
X180066000Y-127274000D03*
X151626000Y-90594000D03*
X145552000Y-61638000D03*
X186326000Y-124980000D03*
X157890000Y-100006000D03*
X150310000Y-93910000D03*
X135586000Y-110438000D03*
X170688000Y-132588000D03*
X135586000Y-113486000D03*
X109524000Y-130336000D03*
X123150000Y-59852000D03*
X96062000Y-126780000D03*
X122936000Y-130302000D03*
X173532000Y-133892000D03*
X186206000Y-77000000D03*
X123660000Y-120360000D03*
X128524000Y-128270000D03*
X150260000Y-82192000D03*
D44*
X178800000Y-88240000D03*
D23*
X159004000Y-113030000D03*
X98258000Y-59852000D03*
X181600000Y-128750000D03*
X154710000Y-85474000D03*
X174792000Y-130054000D03*
X147320000Y-75304000D03*
X156462000Y-59840000D03*
X151626000Y-75354000D03*
X119098000Y-61650000D03*
X186266000Y-106874000D03*
X156474000Y-61638000D03*
X98602000Y-135162000D03*
X156284000Y-93890000D03*
X115178000Y-93400000D03*
X159124000Y-82192000D03*
X148736000Y-92352000D03*
X144232000Y-58328000D03*
X151128000Y-59840000D03*
X187790000Y-106874000D03*
X169402000Y-59804000D03*
X187730000Y-82080000D03*
X142974000Y-61650000D03*
X110794000Y-131860000D03*
X116078000Y-128270000D03*
X112064000Y-135162000D03*
X108000000Y-128304000D03*
X103936000Y-135162000D03*
X187730000Y-71920000D03*
X153150000Y-85514000D03*
X162736000Y-61616000D03*
D44*
X178730000Y-92000000D03*
D23*
X150260000Y-87018000D03*
D44*
X170860000Y-96260000D03*
D23*
X158710000Y-58328000D03*
X170738000Y-135162000D03*
X101396000Y-128304000D03*
X124460000Y-133604000D03*
X137882000Y-59852000D03*
X159124000Y-90574000D03*
X118872000Y-128270000D03*
X112064000Y-128304000D03*
X129399000Y-59850000D03*
X145796000Y-90544000D03*
X102322000Y-59852000D03*
X187790000Y-120082000D03*
X159160000Y-100006000D03*
X175714000Y-58292000D03*
X138898000Y-59852000D03*
D44*
X158530000Y-130390000D03*
X174780000Y-88370000D03*
D23*
X105460000Y-133638000D03*
X102666000Y-126780000D03*
X151676000Y-83770000D03*
X181600000Y-131290000D03*
X177586000Y-131324000D03*
X126605000Y-59850000D03*
X176002000Y-127274000D03*
X153150000Y-78910000D03*
X154734000Y-95540000D03*
X151140000Y-61638000D03*
X91948000Y-102870000D03*
X187730000Y-68364000D03*
X90678000Y-119380000D03*
X158954000Y-119854000D03*
X159134000Y-98532000D03*
X90728000Y-128304000D03*
X91998000Y-99856000D03*
X153200000Y-93930000D03*
X186266000Y-102048000D03*
X103936000Y-133638000D03*
X149616000Y-61638000D03*
X145846000Y-93880000D03*
X153630000Y-58328000D03*
X124850000Y-121480000D03*
X103604000Y-61650000D03*
X157650000Y-83750000D03*
X157410000Y-111548000D03*
X183166000Y-123472000D03*
X130480000Y-95220000D03*
X115796000Y-61650000D03*
X105460000Y-131860000D03*
X122936000Y-133604000D03*
X157600000Y-85494000D03*
X125730000Y-131826000D03*
X176072000Y-133892000D03*
X110794000Y-126780000D03*
X110794000Y-128304000D03*
X125347000Y-61648000D03*
X178254000Y-58292000D03*
X147320000Y-86988000D03*
X108000000Y-135162000D03*
X154382000Y-116298000D03*
X132620000Y-101474000D03*
X96062000Y-128304000D03*
X102666000Y-128304000D03*
X137110000Y-113486000D03*
X181610000Y-132588000D03*
X173428000Y-58292000D03*
X184620000Y-73748000D03*
X129210000Y-93696000D03*
X127050000Y-135162000D03*
X157176000Y-116298000D03*
X187730000Y-88938000D03*
X168144000Y-61602000D03*
X147320000Y-89020000D03*
X154710000Y-76838000D03*
X114526000Y-61650000D03*
X186256000Y-85416000D03*
X186386000Y-127920000D03*
X156234000Y-86998000D03*
X119086000Y-59852000D03*
X180126000Y-130054000D03*
X148736000Y-85494000D03*
X145796000Y-89020000D03*
X148736000Y-76858000D03*
X108000000Y-131860000D03*
X159134000Y-97008000D03*
X145820000Y-95530000D03*
X148786000Y-83750000D03*
X148736000Y-90574000D03*
X157600000Y-76858000D03*
X155070000Y-98532000D03*
X181610000Y-133858000D03*
X155096000Y-100006000D03*
D44*
X182560000Y-92130000D03*
D23*
X165338000Y-59804000D03*
X122936000Y-131826000D03*
X145796000Y-92322000D03*
X151626000Y-87038000D03*
X187780000Y-75256000D03*
X131318000Y-124968000D03*
X153150000Y-76878000D03*
X155886000Y-111548000D03*
X91948000Y-104140000D03*
X99528000Y-59852000D03*
X123162000Y-61650000D03*
X101396000Y-135162000D03*
X109524000Y-135162000D03*
X101396000Y-126780000D03*
X181010000Y-61580000D03*
X115784000Y-59852000D03*
X170634000Y-58292000D03*
X171948000Y-128750000D03*
X152360000Y-58328000D03*
X181600000Y-130020000D03*
X149604000Y-59840000D03*
X128524000Y-126746000D03*
X154710000Y-90554000D03*
X115784000Y-58328000D03*
X107668000Y-61650000D03*
X110794000Y-133638000D03*
X186256000Y-90496000D03*
X138898000Y-58328000D03*
X98602000Y-130336000D03*
X112064000Y-133638000D03*
X90678000Y-117856000D03*
X153150000Y-82212000D03*
X186176000Y-65000000D03*
X156234000Y-85474000D03*
X145796000Y-80384000D03*
X141040000Y-94240000D03*
X90678000Y-110490000D03*
X187780000Y-85416000D03*
X90728000Y-129574000D03*
X116810000Y-96360000D03*
X91948000Y-105664000D03*
X103936000Y-126780000D03*
X118872000Y-130302000D03*
X186266000Y-108906000D03*
X125730000Y-126746000D03*
X127000000Y-126746000D03*
X131096000Y-99950000D03*
X187884000Y-129520000D03*
X157624000Y-95560000D03*
X177596000Y-133892000D03*
D44*
X162350000Y-92130000D03*
D23*
X98602000Y-128304000D03*
X122560000Y-120350000D03*
X91998000Y-120938000D03*
X169154000Y-130020000D03*
X159174000Y-83750000D03*
X187790000Y-102048000D03*
X151626000Y-82212000D03*
X119242000Y-93400000D03*
X173522000Y-131324000D03*
X135596000Y-107538000D03*
X114858000Y-130336000D03*
X110450000Y-58328000D03*
X150260000Y-76858000D03*
X98258000Y-58328000D03*
X121666000Y-124968000D03*
X134652000Y-99950000D03*
X169154000Y-128750000D03*
X107656000Y-59852000D03*
X159124000Y-75334000D03*
X186266000Y-96714000D03*
X154760000Y-93890000D03*
X133858000Y-128270000D03*
X110794000Y-135162000D03*
X179778000Y-58292000D03*
X157460000Y-113106000D03*
X147344000Y-95530000D03*
X148786000Y-93910000D03*
X138380000Y-113486000D03*
X158954000Y-116298000D03*
X117972000Y-93400000D03*
X159160000Y-101530000D03*
X184620000Y-68414000D03*
X187730000Y-77000000D03*
D44*
X162420000Y-88370000D03*
D23*
X170678000Y-130020000D03*
X128524000Y-124968000D03*
X124206000Y-128270000D03*
X97332000Y-128304000D03*
X97332000Y-126780000D03*
X183276000Y-127970000D03*
X134440000Y-113468000D03*
X93522000Y-126780000D03*
X184800000Y-127970000D03*
X174732000Y-127274000D03*
D44*
X174820000Y-96190000D03*
D23*
X98602000Y-131860000D03*
X91948000Y-116332000D03*
X144232000Y-59852000D03*
X122560000Y-121580000D03*
X186206000Y-68364000D03*
X139840000Y-95530000D03*
X152398000Y-59840000D03*
X91948000Y-108712000D03*
X125335000Y-59850000D03*
X174802000Y-133892000D03*
X150752000Y-98532000D03*
X136176000Y-101474000D03*
X132588000Y-128270000D03*
D44*
X166620000Y-96190000D03*
D23*
X186256000Y-75256000D03*
X154710000Y-89030000D03*
X141438000Y-58328000D03*
X136906000Y-91186000D03*
X117652000Y-135162000D03*
X106730000Y-126780000D03*
X91998000Y-122462000D03*
X166608000Y-59804000D03*
D44*
X135480000Y-130560000D03*
D23*
X186266000Y-110430000D03*
X134416000Y-91220000D03*
X101396000Y-130336000D03*
X120142000Y-126746000D03*
X169144000Y-127274000D03*
X120142000Y-128270000D03*
X132588000Y-124968000D03*
X156234000Y-76838000D03*
X132548000Y-58328000D03*
X186266000Y-95190000D03*
X106730000Y-128304000D03*
X148760000Y-95560000D03*
X90728000Y-122462000D03*
X113588000Y-133638000D03*
X178796000Y-127274000D03*
X170668000Y-127274000D03*
X149566000Y-58328000D03*
X157590000Y-74020000D03*
X184740000Y-125030000D03*
X186276000Y-123422000D03*
X124830000Y-93400000D03*
X154710000Y-86998000D03*
X171948000Y-130020000D03*
X144244000Y-61650000D03*
X151626000Y-85514000D03*
X122936000Y-128270000D03*
X183066000Y-65050000D03*
X111732000Y-61650000D03*
X159124000Y-92352000D03*
X134652000Y-101474000D03*
X157864000Y-98532000D03*
X157176000Y-119854000D03*
X187790000Y-96714000D03*
X147320000Y-90544000D03*
X129399000Y-58326000D03*
X164044000Y-58328000D03*
X186206000Y-73698000D03*
X90678000Y-105664000D03*
X180136000Y-132622000D03*
X101396000Y-133638000D03*
X127875000Y-59850000D03*
X141000000Y-95530000D03*
X173478000Y-61602000D03*
X124580000Y-98930000D03*
X159114000Y-74020000D03*
X187840000Y-113766000D03*
X113908000Y-93400000D03*
X106730000Y-135162000D03*
X147310000Y-73990000D03*
X150260000Y-89050000D03*
X156594000Y-98532000D03*
X122036000Y-93400000D03*
X186206000Y-66840000D03*
X174792000Y-128784000D03*
X145846000Y-83720000D03*
X156234000Y-90554000D03*
X117602000Y-128270000D03*
X91948000Y-110490000D03*
X114858000Y-131860000D03*
D44*
X170820000Y-88440000D03*
D23*
X187730000Y-80556000D03*
X169214000Y-135162000D03*
X179740000Y-61580000D03*
X99872000Y-135162000D03*
X119086000Y-58328000D03*
X151626000Y-92372000D03*
X133818000Y-58328000D03*
X187800000Y-123422000D03*
X158954000Y-106138000D03*
X159148000Y-95560000D03*
X156234000Y-82172000D03*
X145796000Y-82162000D03*
X173462000Y-127274000D03*
X124206000Y-126746000D03*
X187790000Y-98746000D03*
X104862000Y-58328000D03*
X125730000Y-130302000D03*
X187840000Y-103606000D03*
X186266000Y-100270000D03*
X111720000Y-58328000D03*
X177596000Y-135162000D03*
D44*
X162460000Y-96190000D03*
D23*
X141450000Y-61650000D03*
X156620000Y-100006000D03*
X104862000Y-59852000D03*
X176946000Y-61580000D03*
X121892000Y-61650000D03*
X133170000Y-113468000D03*
X155886000Y-104690000D03*
X122950000Y-98910000D03*
X169364000Y-58292000D03*
X159124000Y-87018000D03*
X125730000Y-124968000D03*
X156284000Y-83730000D03*
X159124000Y-80414000D03*
X186206000Y-70396000D03*
X134450000Y-107520000D03*
X158954000Y-104614000D03*
X99528000Y-58328000D03*
X145796000Y-86988000D03*
X117602000Y-131826000D03*
X187790000Y-95190000D03*
X158954000Y-114774000D03*
X117602000Y-130302000D03*
X168132000Y-59804000D03*
X125780000Y-135162000D03*
X159124000Y-89050000D03*
X129794000Y-126746000D03*
X169414000Y-61602000D03*
X103592000Y-59852000D03*
X91948000Y-112014000D03*
X118872000Y-131826000D03*
X134440000Y-110420000D03*
X174802000Y-135162000D03*
X150310000Y-83750000D03*
X122950000Y-101590000D03*
X176934000Y-59782000D03*
X177586000Y-130054000D03*
X150778000Y-100006000D03*
X112990000Y-58328000D03*
X145502000Y-58328000D03*
X153668000Y-59840000D03*
X171998000Y-131324000D03*
X108000000Y-126780000D03*
X171958000Y-132588000D03*
X157600000Y-78890000D03*
X173522000Y-128784000D03*
X187730000Y-70396000D03*
X181540000Y-127240000D03*
X124460000Y-130302000D03*
X136612000Y-58328000D03*
X152410000Y-61638000D03*
X155204000Y-61638000D03*
D44*
X166510000Y-92130000D03*
D23*
X186206000Y-78524000D03*
X113002000Y-61650000D03*
X134440000Y-111944000D03*
X183096000Y-70446000D03*
X109524000Y-126780000D03*
X156234000Y-75314000D03*
X118872000Y-126746000D03*
X177596000Y-132622000D03*
X90678000Y-108712000D03*
X187790000Y-100270000D03*
X159930000Y-59818000D03*
X122940000Y-100240000D03*
X157600000Y-89050000D03*
X186316000Y-113766000D03*
X118922000Y-135162000D03*
X116332000Y-131826000D03*
X187730000Y-66840000D03*
X170678000Y-128750000D03*
X184620000Y-66890000D03*
X102322000Y-58328000D03*
X90728000Y-123732000D03*
X120368000Y-61650000D03*
X187780000Y-93290000D03*
X120142000Y-133604000D03*
X139850000Y-94220000D03*
X114514000Y-59852000D03*
X153826000Y-101530000D03*
X158672000Y-61616000D03*
X114858000Y-133638000D03*
X187790000Y-117288000D03*
X120446000Y-135162000D03*
X114808000Y-128270000D03*
X105460000Y-128304000D03*
X156234000Y-89030000D03*
X164006000Y-61616000D03*
X123560000Y-93400000D03*
X157600000Y-87018000D03*
X154710000Y-75314000D03*
X178856000Y-131324000D03*
X102666000Y-133638000D03*
X109524000Y-131860000D03*
X153150000Y-87038000D03*
X155886000Y-106214000D03*
X186266000Y-117288000D03*
X116078000Y-126746000D03*
X137110000Y-110438000D03*
X187840000Y-118846000D03*
X129794000Y-124968000D03*
X114858000Y-135162000D03*
X117828000Y-61650000D03*
X140180000Y-61650000D03*
X133170000Y-111944000D03*
X113538000Y-128270000D03*
X187910000Y-127920000D03*
X157650000Y-93910000D03*
X103592000Y-58328000D03*
X180126000Y-128784000D03*
X110462000Y-61650000D03*
X171958000Y-133858000D03*
X97332000Y-131860000D03*
D44*
X170750000Y-92200000D03*
D23*
X155886000Y-114850000D03*
X147320000Y-92322000D03*
X147064000Y-59840000D03*
X184620000Y-71970000D03*
X148296000Y-58328000D03*
X156234000Y-78870000D03*
X102666000Y-135162000D03*
X157864000Y-97008000D03*
X150260000Y-80414000D03*
X161212000Y-61616000D03*
X158954000Y-121632000D03*
X116382000Y-133638000D03*
X176062000Y-130054000D03*
X131096000Y-101474000D03*
X178856000Y-130054000D03*
X121880000Y-58328000D03*
X170672000Y-59804000D03*
X154700000Y-74000000D03*
X101396000Y-131860000D03*
X159942000Y-61616000D03*
X184590000Y-65050000D03*
X186316000Y-121640000D03*
X117816000Y-58328000D03*
X153800000Y-97008000D03*
X141438000Y-59852000D03*
X133170000Y-108896000D03*
X99872000Y-131860000D03*
X132620000Y-99950000D03*
X102666000Y-131860000D03*
X148736000Y-89050000D03*
D44*
X174710000Y-92130000D03*
D23*
X151650000Y-95580000D03*
X132588000Y-126746000D03*
X148736000Y-78890000D03*
X130669000Y-58326000D03*
X137110000Y-111962000D03*
X106386000Y-58328000D03*
X151090000Y-58328000D03*
X163994000Y-59818000D03*
X154760000Y-83730000D03*
X183250000Y-129570000D03*
X108926000Y-59852000D03*
X173522000Y-130054000D03*
X156234000Y-92332000D03*
X148736000Y-87018000D03*
X172196000Y-59804000D03*
X121666000Y-128270000D03*
X157410000Y-114850000D03*
X106730000Y-130336000D03*
X159124000Y-85494000D03*
X122936000Y-126746000D03*
X140168000Y-58328000D03*
X153174000Y-95580000D03*
X177586000Y-128784000D03*
X105460000Y-135162000D03*
X186316000Y-103606000D03*
X155906000Y-116298000D03*
X129210000Y-95220000D03*
X123640000Y-121540000D03*
X147320000Y-76828000D03*
X154710000Y-82172000D03*
X186256000Y-93290000D03*
X125730000Y-133604000D03*
X178856000Y-128784000D03*
X110794000Y-130336000D03*
X145796000Y-75304000D03*
X108926000Y-58328000D03*
X155070000Y-97008000D03*
X91948000Y-101346000D03*
X186266000Y-98746000D03*
X165300000Y-58292000D03*
X162724000Y-59818000D03*
X173532000Y-135162000D03*
X91998000Y-128304000D03*
X91948000Y-117856000D03*
X117602000Y-126746000D03*
X155096000Y-101530000D03*
X127000000Y-133604000D03*
X112638000Y-93400000D03*
X121666000Y-126746000D03*
X153800000Y-98532000D03*
X100640000Y-94500000D03*
X186336000Y-126362000D03*
X114808000Y-126746000D03*
X124810000Y-120360000D03*
X187790000Y-115510000D03*
X108000000Y-133638000D03*
X124206000Y-124968000D03*
X90728000Y-99856000D03*
X91948000Y-114808000D03*
X127000000Y-128270000D03*
X126605000Y-58326000D03*
X98270000Y-61650000D03*
X184690000Y-123472000D03*
X118872000Y-133604000D03*
X107380000Y-97940000D03*
D44*
X157430000Y-134260000D03*
D23*
X186266000Y-112208000D03*
X177526000Y-127274000D03*
X187730000Y-87160000D03*
X186206000Y-71920000D03*
X187790000Y-108906000D03*
X153150000Y-90594000D03*
X106730000Y-131860000D03*
X130480000Y-93696000D03*
X99872000Y-133638000D03*
X172158000Y-58292000D03*
X90678000Y-114808000D03*
X113588000Y-135162000D03*
X157600000Y-82192000D03*
X91948000Y-113284000D03*
X186266000Y-115510000D03*
X187840000Y-121640000D03*
X140168000Y-59852000D03*
D44*
X129810000Y-130600000D03*
D23*
X105460000Y-130336000D03*
X170728000Y-131324000D03*
X135586000Y-111962000D03*
X187730000Y-91732000D03*
X122986000Y-135162000D03*
X121666000Y-131826000D03*
X90678000Y-116332000D03*
X153150000Y-89070000D03*
X148736000Y-75334000D03*
X169164000Y-133858000D03*
X120766000Y-93400000D03*
X148346000Y-61638000D03*
X187790000Y-105350000D03*
X171938000Y-127274000D03*
X153150000Y-80434000D03*
X127000000Y-130302000D03*
X155154000Y-58328000D03*
X107380000Y-100260000D03*
X103936000Y-128304000D03*
X142962000Y-58328000D03*
X183096000Y-68414000D03*
X145796000Y-85464000D03*
X150260000Y-85494000D03*
X179728000Y-59782000D03*
X148736000Y-80414000D03*
X153140000Y-74040000D03*
X103936000Y-131860000D03*
X90678000Y-113284000D03*
X161200000Y-59818000D03*
X98602000Y-133638000D03*
X120356000Y-59852000D03*
X124560000Y-100270000D03*
X120396000Y-131826000D03*
X183216000Y-125030000D03*
X151626000Y-78910000D03*
X148736000Y-82192000D03*
X90678000Y-104140000D03*
X124460000Y-131826000D03*
X91948000Y-107188000D03*
X109524000Y-128304000D03*
X97332000Y-135162000D03*
X180136000Y-133892000D03*
X176072000Y-132622000D03*
X111720000Y-59852000D03*
X166620000Y-61602000D03*
X129411000Y-61648000D03*
X187850000Y-124980000D03*
X169204000Y-131324000D03*
X97332000Y-130336000D03*
X121666000Y-130302000D03*
X175664000Y-59782000D03*
X187780000Y-90496000D03*
X159124000Y-78890000D03*
X127000000Y-124968000D03*
X107380000Y-102460000D03*
X186266000Y-105350000D03*
X176072000Y-135162000D03*
X150250000Y-74020000D03*
X131318000Y-126746000D03*
X90678000Y-107188000D03*
X157890000Y-101530000D03*
X176062000Y-128784000D03*
X147320000Y-80384000D03*
X117816000Y-59852000D03*
X108000000Y-130336000D03*
X151676000Y-93930000D03*
X176984000Y-58292000D03*
X186316000Y-118846000D03*
D44*
X178840000Y-96060000D03*
D23*
X153150000Y-75354000D03*
X115750000Y-96340000D03*
X113588000Y-130336000D03*
X123150000Y-58328000D03*
X91998000Y-126780000D03*
X145796000Y-78860000D03*
X183096000Y-71970000D03*
X126617000Y-61648000D03*
X147076000Y-61638000D03*
X151626000Y-76878000D03*
X186206000Y-83858000D03*
X153826000Y-100006000D03*
X125335000Y-58326000D03*
X121666000Y-133604000D03*
X186206000Y-80556000D03*
X159174000Y-93910000D03*
X135586000Y-108914000D03*
X178866000Y-133892000D03*
X137882000Y-58328000D03*
X127000000Y-131826000D03*
X173532000Y-132622000D03*
X145796000Y-76828000D03*
X180126000Y-131324000D03*
X180136000Y-135162000D03*
X147320000Y-78860000D03*
X155192000Y-59840000D03*
X152022000Y-97008000D03*
X91998000Y-97062000D03*
X156224000Y-74000000D03*
X159124000Y-76858000D03*
X122936000Y-124968000D03*
X99872000Y-130336000D03*
X99540000Y-61650000D03*
X186206000Y-82080000D03*
D44*
X182670000Y-96190000D03*
D23*
X106398000Y-61650000D03*
X165350000Y-61602000D03*
X184750000Y-126412000D03*
X181048000Y-58292000D03*
X104874000Y-61650000D03*
X183096000Y-66890000D03*
X91998000Y-98332000D03*
X150260000Y-75334000D03*
X183226000Y-126412000D03*
X156258000Y-95540000D03*
X150260000Y-92352000D03*
X133180000Y-107520000D03*
X181610000Y-135128000D03*
X158954000Y-111472000D03*
X158954000Y-118330000D03*
X90678000Y-101346000D03*
X150284000Y-95560000D03*
X175676000Y-61580000D03*
X150260000Y-90574000D03*
X147370000Y-93880000D03*
X99872000Y-128304000D03*
X157600000Y-90574000D03*
M02*
