M48
; DRILL file {KiCad (7.0.0-rc2-19-gbcc1e28bab)} date Thu Jan 26 23:12:18 2023
; FORMAT={-:-/ absolute / inch / decimal}
; #@! TF.CreationDate,2023-01-26T23:12:18-08:00
; #@! TF.GenerationSoftware,Kicad,Pcbnew,(7.0.0-rc2-19-gbcc1e28bab)
; #@! TF.FileFunction,Plated,1,2,PTH
FMAT,2
INCH
; #@! TA.AperFunction,Plated,PTH,ViaDrill
T1C0.0157
; #@! TA.AperFunction,Plated,PTH,ComponentDrill
T2C0.0197
; #@! TA.AperFunction,Plated,PTH,ComponentDrill
T3C0.0236
; #@! TA.AperFunction,Plated,PTH,ComponentDrill
T4C0.0276
; #@! TA.AperFunction,Plated,PTH,ComponentDrill
T5C0.0315
; #@! TA.AperFunction,Plated,PTH,ComponentDrill
T6C0.0354
; #@! TA.AperFunction,Plated,PTH,ComponentDrill
T7C0.0394
; #@! TA.AperFunction,Plated,PTH,ComponentDrill
T8C0.0400
; #@! TA.AperFunction,Plated,PTH,ComponentDrill
T9C0.0402
; #@! TA.AperFunction,Plated,PTH,ComponentDrill
T10C0.0598
; #@! TA.AperFunction,Plated,PTH,ViaDrill
T11C0.1181
; #@! TA.AperFunction,Plated,PTH,ComponentDrill
T12C0.1260
%
G90
G05
T1
X3.57Y-3.99
X3.57Y-4.05
X3.57Y-4.1
X3.57Y-4.16
X3.57Y-4.22
X3.57Y-4.28
X3.57Y-4.35
X3.57Y-4.41
X3.57Y-4.46
X3.57Y-4.52
X3.57Y-4.58
X3.57Y-4.64
X3.57Y-4.7
X3.572Y-3.8213
X3.572Y-3.8713
X3.572Y-3.9313
X3.572Y-4.7613
X3.572Y-4.8213
X3.572Y-4.8713
X3.572Y-4.9313
X3.572Y-4.9913
X3.572Y-5.0513
X3.572Y-5.1013
X3.62Y-3.99
X3.62Y-4.05
X3.62Y-4.1
X3.62Y-4.16
X3.62Y-4.22
X3.62Y-4.28
X3.62Y-4.35
X3.62Y-4.41
X3.62Y-4.46
X3.62Y-4.52
X3.62Y-4.58
X3.62Y-4.64
X3.62Y-4.7
X3.622Y-3.8213
X3.622Y-3.8713
X3.622Y-3.9313
X3.622Y-4.7613
X3.622Y-4.8213
X3.622Y-4.8713
X3.622Y-4.9313
X3.622Y-4.9913
X3.622Y-5.0513
X3.682Y-4.9913
X3.682Y-5.0513
X3.732Y-4.9913
X3.732Y-5.0513
X3.782Y-4.9913
X3.782Y-5.0513
X3.832Y-4.9913
X3.832Y-5.0513
X3.832Y-5.1313
X3.832Y-5.1913
X3.832Y-5.2613
X3.832Y-5.3213
X3.8684Y-2.2964
X3.8684Y-2.3564
X3.8689Y-2.4272
X3.882Y-4.9913
X3.882Y-5.0513
X3.882Y-5.1313
X3.882Y-5.1913
X3.882Y-5.2613
X3.882Y-5.3213
X3.9184Y-2.2964
X3.9184Y-2.3564
X3.9189Y-2.4272
X3.932Y-4.9913
X3.932Y-5.0513
X3.932Y-5.1313
X3.932Y-5.1913
X3.932Y-5.2613
X3.932Y-5.3213
X3.9622Y-3.7205
X3.9684Y-2.2964
X3.9684Y-2.3564
X3.9689Y-2.4272
X3.992Y-4.9913
X3.992Y-5.0513
X3.992Y-5.1313
X3.992Y-5.1913
X3.992Y-5.2613
X3.992Y-5.3213
X4.0284Y-2.2964
X4.0284Y-2.3564
X4.0289Y-2.4272
X4.042Y-4.9913
X4.042Y-5.0513
X4.042Y-5.1313
X4.042Y-5.1913
X4.042Y-5.2613
X4.042Y-5.3213
X4.0784Y-2.2964
X4.0784Y-2.3564
X4.0789Y-2.4272
X4.092Y-4.9913
X4.092Y-5.0513
X4.092Y-5.1313
X4.092Y-5.1913
X4.092Y-5.2613
X4.092Y-5.3213
X4.1284Y-2.2964
X4.1284Y-2.3564
X4.1289Y-2.4272
X4.152Y-4.9913
X4.152Y-5.0513
X4.152Y-5.1313
X4.152Y-5.1913
X4.152Y-5.2613
X4.152Y-5.3213
X4.1884Y-2.2964
X4.1884Y-2.3564
X4.1889Y-2.4272
X4.202Y-4.9913
X4.202Y-5.0513
X4.202Y-5.1313
X4.202Y-5.1913
X4.202Y-5.2613
X4.202Y-5.3213
X4.2276Y-3.8559
X4.2276Y-3.9472
X4.2276Y-4.0339
X4.2384Y-2.2964
X4.2384Y-2.3564
X4.2389Y-2.4272
X4.252Y-4.9913
X4.252Y-5.0513
X4.252Y-5.1313
X4.252Y-5.1913
X4.252Y-5.2613
X4.252Y-5.3213
X4.2884Y-2.2964
X4.2884Y-2.3564
X4.2889Y-2.4272
X4.312Y-4.9913
X4.312Y-5.0513
X4.312Y-5.1313
X4.312Y-5.1913
X4.312Y-5.2613
X4.312Y-5.3213
X4.3484Y-2.2964
X4.3484Y-2.3564
X4.3489Y-2.4272
X4.362Y-4.9913
X4.362Y-5.0513
X4.362Y-5.1313
X4.362Y-5.1913
X4.362Y-5.2613
X4.362Y-5.3213
X4.3984Y-2.2964
X4.3984Y-2.3564
X4.3989Y-2.4272
X4.412Y-4.9913
X4.412Y-5.0513
X4.412Y-5.1313
X4.412Y-5.1913
X4.412Y-5.2613
X4.412Y-5.3213
X4.4346Y-3.6772
X4.4484Y-2.2964
X4.4484Y-2.3564
X4.4489Y-2.4272
X4.47Y-4.99
X4.47Y-5.05
X4.472Y-5.1313
X4.472Y-5.1913
X4.472Y-5.2613
X4.472Y-5.3213
X4.4846Y-3.6772
X4.5084Y-2.2964
X4.5084Y-2.3564
X4.5089Y-2.4272
X4.52Y-4.99
X4.52Y-5.05
X4.522Y-5.1313
X4.522Y-5.1913
X4.522Y-5.2613
X4.522Y-5.3213
X4.5346Y-3.6772
X4.5571Y-3.7929
X4.5584Y-2.2964
X4.5584Y-2.3564
X4.5589Y-2.4272
X4.57Y-4.99
X4.57Y-5.05
X4.58Y-5.13
X4.58Y-5.19
X4.582Y-5.2613
X4.582Y-5.3213
X4.5946Y-3.6772
X4.5988Y-3.7937
X4.63Y-4.99
X4.63Y-5.05
X4.63Y-5.13
X4.63Y-5.19
X4.63Y-5.26
X4.632Y-5.3213
X4.6384Y-2.2964
X4.6384Y-2.3564
X4.6389Y-2.4272
X4.639Y-3.7937
X4.6446Y-3.6772
X4.68Y-4.99
X4.68Y-5.05
X4.68Y-5.13
X4.68Y-5.19
X4.68Y-5.26
X4.682Y-5.3213
X4.6884Y-2.2964
X4.6884Y-2.3564
X4.6889Y-2.4272
X4.6946Y-3.6772
X4.73Y-4.99
X4.73Y-5.05
X4.73Y-5.26
X4.7384Y-2.2964
X4.7384Y-2.3564
X4.7389Y-2.4272
X4.74Y-5.13
X4.74Y-5.19
X4.742Y-5.3213
X4.7546Y-3.6772
X4.79Y-4.92
X4.79Y-4.99
X4.79Y-5.05
X4.79Y-5.13
X4.79Y-5.19
X4.79Y-5.26
X4.792Y-5.3213
X4.7984Y-2.2964
X4.7984Y-2.3564
X4.7989Y-2.4272
X4.8046Y-3.6772
X4.8252Y-4.7382
X4.8252Y-4.7866
X4.84Y-4.92
X4.84Y-4.99
X4.84Y-5.05
X4.84Y-5.13
X4.84Y-5.19
X4.84Y-5.26
X4.8402Y-3.9465
X4.8406Y-3.8941
X4.8406Y-3.9996
X4.842Y-5.3213
X4.8484Y-2.2964
X4.8484Y-2.3564
X4.8489Y-2.4272
X4.8646Y-3.6772
X4.8677Y-4.785
X4.8685Y-4.7386
X4.89Y-4.92
X4.89Y-4.99
X4.89Y-5.05
X4.9Y-5.13
X4.9Y-5.19
X4.9Y-5.26
X4.902Y-5.3213
X4.9039Y-3.9476
X4.9039Y-3.9984
X4.9047Y-3.8949
X4.9138Y-4.7386
X4.9146Y-3.6772
X4.9154Y-4.7827
X4.9344Y-2.2963
X4.9344Y-2.3563
X4.9349Y-2.4271
X4.95Y-4.92
X4.95Y-4.99
X4.95Y-5.05
X4.95Y-5.13
X4.95Y-5.19
X4.95Y-5.26
X4.952Y-5.3213
X4.9844Y-2.2963
X4.9844Y-2.3563
X4.9849Y-2.4271
X5.0Y-4.92
X5.0Y-4.99
X5.0Y-5.05
X5.0Y-5.13
X5.0Y-5.19
X5.0Y-5.26
X5.002Y-5.3213
X5.0344Y-2.2963
X5.0344Y-2.3563
X5.0349Y-2.4271
X5.06Y-4.92
X5.06Y-4.99
X5.06Y-5.05
X5.087Y-3.6888
X5.087Y-3.7488
X5.0944Y-2.2963
X5.0944Y-2.3563
X5.0949Y-2.4271
X5.11Y-4.92
X5.11Y-4.99
X5.11Y-5.05
X5.137Y-3.6888
X5.137Y-3.7488
X5.1444Y-2.2963
X5.1613Y-3.935
X5.1613Y-3.995
X5.17Y-4.92
X5.17Y-4.99
X5.17Y-5.05
X5.2184Y-2.2964
X5.22Y-4.92
X5.22Y-4.99
X5.22Y-5.05
X5.2213Y-3.935
X5.2213Y-3.995
X5.2429Y-4.2872
X5.2429Y-4.3472
X5.2429Y-4.4072
X5.2429Y-4.4672
X5.2433Y-4.2331
X5.2684Y-2.2964
X5.27Y-4.92
X5.27Y-4.99
X5.27Y-5.05
X5.292Y-3.5913
X5.2929Y-4.2872
X5.2929Y-4.3472
X5.2929Y-4.4072
X5.2929Y-4.4672
X5.2933Y-4.2331
X5.3013Y-3.935
X5.3013Y-3.995
X5.3284Y-2.2964
X5.338Y-4.288
X5.338Y-4.348
X5.338Y-4.408
X5.338Y-4.468
X5.3384Y-4.2338
X5.3613Y-3.935
X5.3613Y-3.995
X5.3784Y-2.2964
X5.39Y-3.59
X5.398Y-4.348
X5.398Y-4.408
X5.398Y-4.468
X5.4284Y-2.2964
X5.4284Y-2.3564
X5.4289Y-2.4272
X5.448Y-4.468
X5.4684Y-2.2964
X5.4684Y-2.3564
X5.4689Y-2.4272
X5.5055Y-3.761
X5.5059Y-3.7094
X5.5184Y-2.2964
X5.5184Y-2.3564
X5.5189Y-2.4272
X5.5512Y-3.761
X5.5528Y-3.7102
X5.5684Y-2.2964
X5.5684Y-2.3564
X5.5689Y-2.4272
X5.6284Y-2.2964
X5.6284Y-2.3564
X5.6289Y-2.4272
X5.6784Y-2.2964
X5.6784Y-2.3564
X5.6789Y-2.4272
X5.7284Y-2.2964
X5.7299Y-2.3559
X5.7304Y-2.4267
X5.7396Y-2.913
X5.74Y-2.9647
X5.74Y-3.0247
X5.74Y-3.1047
X5.74Y-3.1647
X5.74Y-3.2347
X5.74Y-3.3647
X5.74Y-3.4247
X5.74Y-3.5047
X5.74Y-3.5647
X5.74Y-3.6347
X5.7409Y-3.761
X5.742Y-3.2961
X5.742Y-3.6961
X5.7884Y-2.2964
X5.7899Y-2.3559
X5.7904Y-2.4267
X5.7996Y-2.913
X5.8Y-2.9647
X5.8Y-3.0247
X5.8Y-3.1047
X5.8Y-3.1647
X5.8Y-3.2347
X5.8Y-3.3647
X5.8Y-3.4247
X5.8Y-3.5047
X5.8Y-3.5647
X5.8Y-3.6347
X5.8009Y-3.761
X5.802Y-3.2961
X5.802Y-3.6961
X5.8384Y-2.2964
X5.8399Y-2.3559
X5.8404Y-2.4267
X5.8554Y-2.9142
X5.8557Y-2.9659
X5.8557Y-3.0259
X5.8557Y-3.1059
X5.8557Y-3.1659
X5.8557Y-3.2359
X5.8557Y-3.3659
X5.8557Y-3.4259
X5.8557Y-3.5059
X5.8557Y-3.5659
X5.8557Y-3.6359
X5.8567Y-3.7622
X5.8577Y-3.2972
X5.8577Y-3.6972
X5.8884Y-2.2964
X5.8899Y-2.3559
X5.8904Y-2.4267
X5.9154Y-2.9142
X5.9157Y-2.9659
X5.9157Y-3.0259
X5.9157Y-3.1059
X5.9157Y-3.1659
X5.9157Y-3.2359
X5.9157Y-3.3659
X5.9157Y-3.4259
X5.9157Y-3.5059
X5.9157Y-3.5659
X5.9157Y-3.6359
X5.9167Y-3.7622
X5.9177Y-3.2972
X5.9177Y-3.6972
X5.9351Y-3.8192
X5.9351Y-3.8792
X5.9361Y-3.9372
X5.9484Y-2.2964
X5.9499Y-2.3559
X5.9504Y-2.4267
X5.9691Y-2.915
X5.9695Y-2.9667
X5.9695Y-3.0267
X5.9695Y-3.1067
X5.9695Y-3.1667
X5.9695Y-3.2367
X5.9695Y-3.3667
X5.9695Y-3.4267
X5.9695Y-3.5067
X5.9695Y-3.5667
X5.9695Y-3.6367
X5.9705Y-3.763
X5.9715Y-3.298
X5.9715Y-3.698
X5.9851Y-3.8192
X5.9851Y-3.8792
X5.9861Y-3.9372
X5.9984Y-2.2964
X5.9999Y-2.3559
X6.0004Y-2.4267
X6.0291Y-2.915
X6.0295Y-2.9667
X6.0295Y-3.0267
X6.0295Y-3.1067
X6.0295Y-3.1667
X6.0295Y-3.2367
X6.0295Y-3.3667
X6.0295Y-3.4267
X6.0295Y-3.5067
X6.0295Y-3.5667
X6.0295Y-3.6367
X6.0305Y-3.763
X6.0315Y-3.298
X6.0315Y-3.698
X6.0484Y-2.2964
X6.0499Y-2.3559
X6.0504Y-2.4267
X6.0551Y-3.8192
X6.0551Y-3.8792
X6.0561Y-3.9372
X6.0561Y-3.9972
X6.078Y-4.5787
X6.0906Y-2.9134
X6.0909Y-2.9651
X6.0909Y-3.0251
X6.0909Y-3.1051
X6.0909Y-3.1651
X6.0909Y-3.2351
X6.0909Y-3.3651
X6.0909Y-3.4251
X6.0909Y-3.5051
X6.0909Y-3.5651
X6.0909Y-3.6351
X6.0919Y-3.7614
X6.0929Y-3.2965
X6.0929Y-3.6965
X6.1051Y-3.8192
X6.1051Y-3.8792
X6.1061Y-3.9372
X6.1061Y-3.9972
X6.1084Y-2.2964
X6.1099Y-2.3559
X6.1104Y-2.4267
X6.1372Y-4.1217
X6.1372Y-4.1817
X6.1372Y-4.3917
X6.1372Y-4.5217
X6.138Y-4.5787
X6.1392Y-4.453
X6.1506Y-2.9134
X6.1509Y-2.9651
X6.1509Y-3.0251
X6.1509Y-3.1051
X6.1509Y-3.1651
X6.1509Y-3.2351
X6.1509Y-3.3651
X6.1509Y-3.4251
X6.1509Y-3.5051
X6.1509Y-3.5651
X6.1509Y-3.6351
X6.1519Y-3.7614
X6.1529Y-3.2965
X6.1529Y-3.6965
X6.1584Y-2.2964
X6.1599Y-2.3559
X6.1604Y-2.4267
X6.1651Y-3.8192
X6.1651Y-3.8792
X6.1661Y-3.9372
X6.1661Y-3.9972
X6.188Y-4.5787
X6.188Y-4.6587
X6.188Y-4.7187
X6.188Y-4.7887
X6.1972Y-4.1217
X6.1972Y-4.1817
X6.1972Y-4.3917
X6.1972Y-4.5217
X6.1992Y-4.453
X6.2043Y-2.9142
X6.2047Y-2.9659
X6.2047Y-3.0259
X6.2047Y-3.1059
X6.2047Y-3.1659
X6.2047Y-3.2359
X6.2047Y-3.3659
X6.2047Y-3.4259
X6.2047Y-3.5059
X6.2047Y-3.5659
X6.2047Y-3.6359
X6.2057Y-3.7622
X6.2067Y-3.2972
X6.2067Y-3.6972
X6.2151Y-3.8192
X6.2151Y-3.8792
X6.2161Y-3.9372
X6.2161Y-3.9972
X6.2465Y-2.355
X6.2469Y-2.4258
X6.2484Y-2.2964
X6.258Y-4.1187
X6.258Y-4.1787
X6.258Y-4.3887
X6.258Y-4.5187
X6.258Y-4.5787
X6.258Y-4.6587
X6.258Y-4.7187
X6.258Y-4.7887
X6.26Y-4.45
X6.2643Y-2.9142
X6.2647Y-2.9659
X6.2647Y-3.0259
X6.2647Y-3.1059
X6.2647Y-3.1659
X6.2647Y-3.2359
X6.2647Y-3.3659
X6.2647Y-3.4259
X6.2647Y-3.5059
X6.2647Y-3.5659
X6.2647Y-3.6359
X6.2651Y-3.8192
X6.2651Y-3.8792
X6.2657Y-3.7622
X6.2661Y-3.9372
X6.2661Y-3.9972
X6.2667Y-3.2972
X6.2667Y-3.6972
X6.2965Y-2.355
X6.2969Y-2.4258
X6.2984Y-2.2964
X6.3465Y-2.355
X6.3469Y-2.4258
X6.3484Y-2.2964
X6.4065Y-2.355
X6.4069Y-2.4258
X6.4084Y-2.2964
X6.4565Y-2.355
X6.4569Y-2.4258
X6.4584Y-2.2964
X6.5079Y-2.295
X6.5094Y-2.3545
X6.5098Y-2.4253
X6.5579Y-2.295
X6.5594Y-2.3545
X6.5598Y-2.4253
X6.6179Y-2.295
X6.6194Y-2.3545
X6.6198Y-2.4253
X6.6592Y-5.0108
X6.6596Y-5.0689
X6.6596Y-5.1189
X6.66Y-5.22
X6.66Y-5.27
X6.6616Y-5.1702
X6.662Y-5.3213
X6.6679Y-2.295
X6.6694Y-2.3545
X6.6698Y-2.4253
X6.7179Y-2.295
X6.7192Y-5.0108
X6.7194Y-2.3545
X6.7196Y-5.0689
X6.7196Y-5.1189
X6.7198Y-2.4253
X6.72Y-5.22
X6.72Y-5.27
X6.7216Y-5.1702
X6.722Y-5.3213
X6.7692Y-5.0108
X6.7696Y-5.0689
X6.7696Y-5.1189
X6.77Y-5.22
X6.77Y-5.27
X6.7716Y-5.1702
X6.772Y-5.3213
X6.7779Y-2.295
X6.7794Y-2.3545
X6.7798Y-2.4253
X6.8279Y-2.295
X6.8292Y-5.0108
X6.8294Y-2.3545
X6.8298Y-2.4253
X6.8316Y-5.0702
X6.8316Y-5.1202
X6.8316Y-5.1702
X6.832Y-5.2213
X6.832Y-5.2713
X6.832Y-5.3213
X6.8792Y-5.0108
X6.8816Y-5.0702
X6.8816Y-5.1202
X6.8816Y-5.1702
X6.882Y-5.2213
X6.882Y-5.2713
X6.882Y-5.3213
X6.9159Y-2.3536
X6.9164Y-2.4244
X6.9179Y-2.295
X6.9292Y-5.0108
X6.9316Y-5.0702
X6.9316Y-5.1202
X6.9316Y-5.1702
X6.932Y-5.2213
X6.932Y-5.2713
X6.932Y-5.3213
X6.9659Y-2.3536
X6.9664Y-2.4244
X6.9679Y-2.295
X6.9892Y-5.0108
X6.9916Y-5.0702
X6.9916Y-5.1202
X6.9916Y-5.1702
X6.992Y-5.2213
X6.992Y-5.2713
X6.992Y-5.3213
X7.0159Y-2.3536
X7.0164Y-2.4244
X7.0179Y-2.295
X7.0392Y-5.0108
X7.0416Y-5.0702
X7.0416Y-5.1202
X7.0416Y-5.1702
X7.042Y-5.2213
X7.042Y-5.2713
X7.042Y-5.3213
X7.0759Y-2.3536
X7.0764Y-2.4244
X7.0779Y-2.295
X7.0892Y-5.0108
X7.0916Y-5.0702
X7.0916Y-5.1202
X7.0916Y-5.1702
X7.092Y-5.2213
X7.092Y-5.2713
X7.092Y-5.3213
X7.1259Y-2.3536
X7.1264Y-2.4244
X7.1279Y-2.295
X7.1472Y-5.0094
X7.1496Y-5.0689
X7.1496Y-5.1189
X7.1496Y-5.1689
X7.15Y-5.22
X7.15Y-5.27
X7.15Y-5.32
X7.2073Y-2.561
X7.2085Y-2.6335
X7.2085Y-2.6935
X7.2085Y-2.7735
X7.2085Y-2.8335
X7.2085Y-2.9035
X7.2113Y-4.8611
X7.2132Y-4.9224
X7.2136Y-4.9769
X7.2146Y-5.1012
X7.2156Y-5.0382
X7.2673Y-2.561
X7.2685Y-2.6335
X7.2685Y-2.6935
X7.2685Y-2.7735
X7.2685Y-2.8335
X7.2685Y-2.9035
X7.2713Y-4.8611
X7.2732Y-4.9224
X7.2736Y-4.9769
X7.2756Y-5.0382
X7.3298Y-2.5591
X7.3309Y-2.6315
X7.3309Y-2.6915
X7.3309Y-2.7715
X7.3309Y-2.8315
X7.3309Y-2.9015
X7.3309Y-3.0315
X7.3309Y-3.0915
X7.3309Y-3.1715
X7.3309Y-3.2315
X7.3309Y-3.3015
X7.3309Y-3.4315
X7.3309Y-3.5015
X7.3309Y-3.6115
X7.3329Y-2.9628
X7.3329Y-3.3628
X7.3329Y-3.5628
X7.3329Y-3.6728
X7.3333Y-3.7476
X7.3333Y-3.8076
X7.3333Y-3.8876
X7.3333Y-3.9476
X7.3333Y-4.0176
X7.3333Y-4.1476
X7.3333Y-4.2076
X7.3333Y-4.2876
X7.3333Y-4.3476
X7.3333Y-4.4176
X7.3333Y-4.5476
X7.3333Y-4.6176
X7.3333Y-4.7276
X7.3337Y-4.8591
X7.3353Y-4.079
X7.3353Y-4.479
X7.3353Y-4.679
X7.3353Y-4.789
X7.3357Y-4.9205
X7.3361Y-4.9749
X7.338Y-5.0362
X7.3898Y-2.5591
X7.3909Y-2.6315
X7.3909Y-2.6915
X7.3909Y-2.7715
X7.3909Y-2.8315
X7.3909Y-2.9015
X7.3909Y-3.0315
X7.3909Y-3.0915
X7.3909Y-3.1715
X7.3909Y-3.2315
X7.3909Y-3.3015
X7.3909Y-3.4315
X7.3909Y-3.5015
X7.3909Y-3.6115
X7.3929Y-2.9628
X7.3929Y-3.3628
X7.3929Y-3.5628
X7.3929Y-3.6728
X7.3933Y-3.7476
X7.3933Y-3.8076
X7.3933Y-3.8876
X7.3933Y-3.9476
X7.3933Y-4.0176
X7.3933Y-4.1476
X7.3933Y-4.2076
X7.3933Y-4.2876
X7.3933Y-4.3476
X7.3933Y-4.4176
X7.3933Y-4.5476
X7.3933Y-4.6176
X7.3933Y-4.7276
X7.3937Y-4.8591
X7.3953Y-4.079
X7.3953Y-4.479
X7.3953Y-4.679
X7.3953Y-4.789
X7.3957Y-4.9205
X7.3961Y-4.9749
X7.397Y-5.0992
X7.398Y-5.0362
T2
X3.5669Y-5.2402
X3.5713Y-2.3638
X3.5946Y-5.1733
X3.5946Y-5.307
X3.5989Y-2.297
X3.5989Y-2.4306
X3.6614Y-5.1457
X3.6614Y-5.3346
X3.6657Y-2.2693
X3.6657Y-2.4583
X3.7282Y-5.1733
X3.7282Y-5.307
X3.7326Y-2.297
X3.7326Y-2.4306
X3.7559Y-5.2402
X3.7602Y-2.3638
X7.2291Y-5.2437
X7.2315Y-2.3626
X7.2568Y-5.1769
X7.2568Y-5.3105
X7.2592Y-2.2958
X7.2592Y-2.4294
X7.3236Y-5.1492
X7.3236Y-5.3382
X7.326Y-2.2681
X7.326Y-2.4571
X7.3904Y-5.1769
X7.3904Y-5.3105
X7.3928Y-2.2958
X7.3928Y-2.4294
X7.4181Y-5.2437
X7.4205Y-2.3626
T3
X5.3878Y-3.7883
X5.3878Y-3.867
T4
X3.8217Y-3.6421
X3.8965Y-3.6421
X4.6Y-4.7944
X4.6Y-4.8692
T5
X4.7243Y-3.8674
X4.7243Y-3.9674
X4.7243Y-4.0674
X4.7243Y-4.1674
X4.7243Y-4.2674
X4.7243Y-4.3674
X4.7243Y-4.4674
X4.7243Y-4.5674
X4.7243Y-4.6674
X4.7243Y-4.7674
X5.0243Y-3.8674
X5.0243Y-3.9674
X5.0243Y-4.0674
X5.0243Y-4.1674
X5.0243Y-4.2674
X5.0243Y-4.3674
X5.0243Y-4.4674
X5.0243Y-4.5674
X5.0243Y-4.6674
X5.0243Y-4.7674
X5.2102Y-3.7685
X5.2102Y-3.8669
X5.2114Y-4.7669
X5.2197Y-4.0673
X5.3098Y-4.7669
X5.3181Y-4.0673
X5.5654Y-4.4992
X5.6638Y-4.4992
X6.0713Y-4.865
X6.0713Y-4.9634
T6
X3.6315Y-3.6148
X3.6315Y-3.7148
T7
X5.1984Y-2.4024
X5.2984Y-2.4024
X5.8016Y-3.8866
X6.0933Y-4.7445
X6.5612Y-2.874
X6.6612Y-2.874
X6.7612Y-2.874
X6.8612Y-2.874
X6.9612Y-2.874
X7.0612Y-2.874
T8
X4.4607Y-4.0703
X4.4607Y-4.1703
X4.4607Y-4.2703
X4.4607Y-4.3703
X4.4607Y-4.4703
X4.4607Y-4.5703
X4.4607Y-4.6703
T9
X3.5965Y-2.7513
X3.5965Y-3.4513
X3.6965Y-2.7513
X3.6965Y-3.4513
X3.7965Y-2.7513
X3.7965Y-3.4513
X3.8965Y-2.7513
X3.8965Y-3.4513
X3.9965Y-2.7513
X3.9965Y-3.4513
X4.0965Y-2.7513
X4.0965Y-3.4513
X4.1965Y-2.7513
X4.1965Y-3.4513
X4.2965Y-2.7513
X4.2965Y-3.4513
X4.3965Y-2.7513
X4.3965Y-3.4513
X4.4965Y-2.7513
X4.4965Y-3.4513
X4.5965Y-2.7513
X4.5965Y-3.4513
X4.6965Y-2.7513
X4.6965Y-3.4513
X4.7965Y-2.7513
X4.7965Y-3.4513
X4.8965Y-2.7513
X4.8965Y-3.4513
X4.9965Y-2.7513
X4.9965Y-3.4513
X5.0965Y-2.7513
X5.0965Y-3.4513
X5.1965Y-2.7513
X5.1965Y-3.4513
X5.2965Y-2.7513
X5.2965Y-3.4513
X5.3965Y-2.7513
X5.3965Y-3.4513
X5.4874Y-3.0013
X5.4874Y-3.1013
X5.4874Y-3.2013
X5.4965Y-2.7513
X5.4965Y-3.4513
T10
X5.5693Y-5.1831
X5.7693Y-5.1831
T11
X5.1106Y-5.1417
X5.224Y-5.2913
X5.3339Y-5.1402
X6.0846Y-5.1362
X6.198Y-5.2858
X6.2413Y-5.1335
X6.3917Y-3.6272
X6.3945Y-3.4791
X6.3961Y-3.787
X6.5555Y-3.6272
X6.5583Y-3.4791
X6.5598Y-3.787
X6.7224Y-3.6299
X6.7252Y-3.4819
X6.7268Y-3.7898
X6.8783Y-3.6272
X6.8811Y-3.4791
X6.8827Y-3.787
X7.0366Y-3.622
X7.0394Y-3.474
X7.0409Y-3.7819
X7.1874Y-3.6272
X7.1902Y-3.4791
X7.1917Y-3.787
T12
X3.6614Y-5.2402
X3.6657Y-2.3638
X7.3236Y-5.2437
X7.326Y-2.3626
T0
M30
